M48
METRIC,LZ,000.000
;FILE_FORMAT=3:3
;TYPE=PLATED
;Layer: PTH_Through
;EasyEDA v6.5.22, 2022-11-12 17:47:35
;ce38d28f7cee49089ddcaa43e1d23f5c,50c4fdda8110441fb1e293bfd2639754,10
;Gerber Generator version 0.2
;Holesize 1 = 0.915 mm
T01C0.915
;Holesize 2 = 0.940 mm
T02C0.940
;Holesize 3 = 1.000 mm
T03C1.000
;Holesize 4 = 1.016 mm
T04C1.016
;Holesize 5 = 1.021 mm
T05C1.021
;Holesize 6 = 1.200 mm
T06C1.200
;Holesize 7 = 1.600 mm
T07C1.600
%
G05
G90
T01
X103606Y048171
X101066Y048171
X098526Y048171
X095986Y048171
X093429Y040905
X093429Y038365
X093429Y035825
X093429Y033285
X101855Y038430
X104395Y037160
X101855Y035890
X104395Y034620
X101855Y033350
X104395Y032080
X101855Y030810
X104395Y029540
X101855Y024460
X104395Y023190
X101855Y021920
X104395Y020650
X101855Y019380
X104395Y018110
X101855Y016840
X104395Y015570
X083700Y031210
X083700Y023590
X093500Y014400
X093500Y024400
X093500Y016900
X093500Y019400
X093500Y021900
X072000Y009380
X072000Y011920
X072000Y014460
X072000Y017000
X072000Y019540
X072000Y022080
X072000Y024620
X043500Y015730
X043500Y018270
X069500Y048600
X072000Y048600
X074500Y048600
X081500Y048700
X084000Y048700
X086500Y048700
T02
X088600Y005960G85X088600Y005960
X091140Y005960G85X091140Y005960
X086060Y005960G85X086060Y005960
T03
X065150Y049900
X054850Y049900
X054850Y045900
X065150Y045900
X065150Y041900
X054850Y041900
X054850Y037900
X065150Y037900
X079200Y030890
X079200Y028350
T04
X035380Y035920
X037920Y035920
X040460Y035920
X043000Y035920
X045540Y035920
X048080Y035920
T05
X007867Y044092G85X007873Y044092
X007867Y041552G85X007873Y041552
X007867Y039012G85X007873Y039012
X007867Y036472G85X007873Y036472
X007867Y033932G85X007873Y033932
X007867Y031392G85X007873Y031392
X007867Y028852G85X007873Y028852
X007867Y026312G85X007873Y026312
X007867Y023772G85X007873Y023772
X007867Y021232G85X007873Y021232
X007867Y018692G85X007873Y018692
X007867Y016152G85X007873Y016152
X007867Y013612G85X007873Y013612
X007867Y011072G85X007873Y011072
X007867Y008532G85X007873Y008532
X030727Y008532G85X030733Y008532
X030727Y011072G85X030733Y011072
X030727Y013612G85X030733Y013612
X030727Y016152G85X030733Y016152
X030727Y018692G85X030733Y018692
X030727Y021232G85X030733Y021232
X030727Y023772G85X030733Y023772
X030727Y026312G85X030733Y026312
X030727Y028852G85X030733Y028852
X030727Y031392G85X030733Y031392
X030727Y033932G85X030733Y033932
X030727Y036472G85X030733Y036472
X030727Y039012G85X030733Y039012
X030727Y041552G85X030733Y041552
X030727Y044092G85X030733Y044092
T06
X079200Y013110
X079200Y020730
T07
X100505Y027001
X115495Y042435
X115495Y011565
M30
