G04 Layer: TopSolderMaskLayer*
G04 EasyEDA v6.5.22, 2022-11-12 17:47:35*
G04 ce38d28f7cee49089ddcaa43e1d23f5c,50c4fdda8110441fb1e293bfd2639754,10*
G04 Gerber Generator version 0.2*
G04 Scale: 100 percent, Rotated: No, Reflected: No *
G04 Dimensions in millimeters *
G04 leading zeros omitted , absolute positions ,4 integer and 5 decimal *
%FSLAX45Y45*%
%MOMM*%

%AMMACRO1*1,1,$1,$2,$3*1,1,$1,$4,$5*1,1,$1,0-$2,0-$3*1,1,$1,0-$4,0-$5*20,1,$1,$2,$3,$4,$5,0*20,1,$1,$4,$5,0-$2,0-$3,0*20,1,$1,0-$2,0-$3,0-$4,0-$5,0*20,1,$1,0-$4,0-$5,$2,$3,0*4,1,4,$2,$3,$4,$5,0-$2,0-$3,0-$4,0-$5,$2,$3,0*%
%ADD10C,1.7272*%
%ADD11MACRO1,0.2032X0.762X-0.762X-0.762X-0.762*%
%ADD12MACRO1,0.2032X0.762X0.762X0.762X-0.762*%
%ADD13C,2.6016*%
%ADD14C,1.6256*%
%ADD15MACRO1,0.1016X0.762X-0.762X-0.762X-0.762*%
%ADD16C,1.7000*%
%ADD17C,1.9000*%
%ADD18MACRO1,0.1016X-0.765X0.765X0.765X0.765*%
%ADD19C,1.6317*%
%ADD20C,2.2352*%
%ADD21C,1.5497*%
%ADD22MACRO1,0.1016X0.724X-0.724X-0.724X-0.724*%

%LPD*%
D10*
G01*
X10360583Y4817084D03*
G01*
X10106583Y4817084D03*
G01*
X9852583Y4817084D03*
D11*
G01*
X9598581Y4817089D03*
D10*
G01*
X9342856Y4090517D03*
G01*
X9342856Y3836517D03*
G01*
X9342856Y3582517D03*
D12*
G01*
X9342856Y3328517D03*
D13*
G01*
X10050475Y2700096D03*
G01*
X11549481Y4243476D03*
G01*
X11549481Y1156487D03*
D14*
G01*
X10185476Y3842994D03*
G01*
X10439476Y3715994D03*
G01*
X10185476Y3588994D03*
G01*
X10439476Y3461994D03*
G01*
X10185476Y3334994D03*
G01*
X10439476Y3207994D03*
G01*
X10185476Y3080994D03*
G01*
X10439476Y2953994D03*
G01*
X10185476Y2445994D03*
G01*
X10439476Y2318994D03*
G01*
X10185476Y2191994D03*
G01*
X10439476Y2064994D03*
G01*
X10185476Y1937994D03*
G01*
X10439476Y1810994D03*
G01*
X10185476Y1683994D03*
G01*
X10439476Y1556994D03*
G01*
X8369985Y3120999D03*
G01*
X8369985Y2358999D03*
G01*
X9349994Y1440002D03*
G01*
X9349994Y2440000D03*
G01*
X9349994Y1689988D03*
G01*
X9349994Y1940001D03*
G01*
X9349994Y2190013D03*
D15*
G01*
X7199985Y937996D03*
D10*
G01*
X7199985Y1191996D03*
G01*
X7199985Y1445996D03*
G01*
X7199985Y1699996D03*
G01*
X7199985Y1953996D03*
G01*
X7199985Y2207996D03*
G01*
X7199985Y2461996D03*
D11*
G01*
X4349986Y1572996D03*
G01*
X4349986Y1826996D03*
D14*
G01*
X6514998Y4989982D03*
G01*
X5484977Y4989982D03*
G01*
X5484977Y4589983D03*
G01*
X6514998Y4589983D03*
G01*
X6514998Y4189984D03*
G01*
X5484977Y4189984D03*
G01*
X5484977Y3789984D03*
G01*
X6514998Y3789984D03*
D10*
G01*
X6949998Y4859985D03*
G01*
X7199985Y4859985D03*
G01*
X7449997Y4859985D03*
G01*
X8149996Y4869992D03*
G01*
X8399983Y4869992D03*
G01*
X8649995Y4869992D03*
D16*
G01*
X7919973Y3088995D03*
G01*
X7919973Y2834995D03*
D17*
G01*
X7919973Y1310995D03*
G01*
X7919973Y2072995D03*
D18*
G01*
X786996Y4409208D03*
D19*
G01*
X786993Y4155211D03*
G01*
X786993Y3901211D03*
G01*
X786993Y3647211D03*
G01*
X786993Y3393211D03*
G01*
X786993Y3139211D03*
G01*
X786993Y2885211D03*
G01*
X786993Y2631211D03*
G01*
X786993Y2377211D03*
G01*
X786993Y2123211D03*
G01*
X786993Y1869211D03*
G01*
X786993Y1615211D03*
G01*
X786993Y1361211D03*
G01*
X786993Y1107211D03*
G01*
X786993Y853211D03*
G01*
X3072993Y853211D03*
G01*
X3072993Y1107211D03*
G01*
X3072993Y1361211D03*
G01*
X3072993Y1615211D03*
G01*
X3072993Y1869211D03*
G01*
X3072993Y2123211D03*
G01*
X3072993Y2377211D03*
G01*
X3072993Y2631211D03*
G01*
X3072993Y2885211D03*
G01*
X3072993Y3139211D03*
G01*
X3072993Y3393211D03*
G01*
X3072993Y3647211D03*
G01*
X3072993Y3901211D03*
G01*
X3072993Y4155211D03*
G01*
X3072993Y4409211D03*
D20*
G01*
X3537991Y3591991D03*
G01*
X3791991Y3591991D03*
G01*
X4045991Y3591991D03*
G01*
X4299991Y3591991D03*
G01*
X4553991Y3591991D03*
G01*
X4807991Y3591991D03*
D21*
G01*
X8859977Y596010D03*
D22*
G01*
X9113982Y596003D03*
D21*
G01*
X8605977Y596010D03*
M02*
