G04 Layer: BottomLayer*
G04 EasyEDA v6.5.22, 2022-11-12 17:47:35*
G04 ce38d28f7cee49089ddcaa43e1d23f5c,50c4fdda8110441fb1e293bfd2639754,10*
G04 Gerber Generator version 0.2*
G04 Scale: 100 percent, Rotated: No, Reflected: No *
G04 Dimensions in millimeters *
G04 leading zeros omitted , absolute positions ,4 integer and 5 decimal *
%FSLAX45Y45*%
%MOMM*%

%ADD10C,0.3000*%
%ADD11C,1.0000*%
%ADD12C,1.5240*%
%ADD13R,1.5240X1.5240*%
%ADD14C,2.5000*%
%ADD15C,1.6000*%
%ADD16C,1.8000*%
%ADD17R,1.5301X1.5301*%
%ADD18C,1.5301*%
%ADD19C,2.0320*%
%ADD20C,1.4481*%
%ADD21R,1.4481X1.4481*%
%ADD22C,0.6096*%
%ADD23C,0.0180*%

%LPD*%
G36*
X36068Y25908D02*
G01*
X32156Y26670D01*
X28854Y28905D01*
X26670Y32207D01*
X25908Y36068D01*
X25908Y5453938D01*
X26670Y5457799D01*
X28854Y5461101D01*
X32156Y5463286D01*
X36068Y5464098D01*
X11963958Y5464098D01*
X11967819Y5463286D01*
X11971070Y5461101D01*
X11973255Y5457799D01*
X11974068Y5453938D01*
X11974068Y36068D01*
X11973255Y32207D01*
X11971070Y28905D01*
X11967819Y26670D01*
X11963958Y25908D01*
G37*

%LPC*%
G36*
X1090320Y269087D02*
G01*
X5979414Y269087D01*
X5987846Y269900D01*
X5995517Y272237D01*
X6002578Y275996D01*
X6009132Y281432D01*
X6874103Y1146352D01*
X6877354Y1148537D01*
X6881215Y1149299D01*
X7100417Y1150620D01*
X7104176Y1149959D01*
X7107326Y1148029D01*
X7109612Y1145032D01*
X7112101Y1139952D01*
X7119823Y1128725D01*
X7128967Y1118616D01*
X7139431Y1109827D01*
X7150912Y1102461D01*
X7163257Y1096721D01*
X7176312Y1092708D01*
X7189774Y1090422D01*
X7203389Y1089964D01*
X7217003Y1091336D01*
X7230262Y1094486D01*
X7242962Y1099413D01*
X7254900Y1105966D01*
X7265873Y1114044D01*
X7275728Y1123543D01*
X7284110Y1134211D01*
X7291070Y1145946D01*
X7296403Y1158494D01*
X7300010Y1171651D01*
X7301839Y1185164D01*
X7301839Y1198829D01*
X7300010Y1212342D01*
X7296403Y1225499D01*
X7291070Y1238046D01*
X7284110Y1249781D01*
X7275728Y1260449D01*
X7265873Y1269949D01*
X7254900Y1278026D01*
X7242962Y1284579D01*
X7230262Y1289507D01*
X7217003Y1292656D01*
X7203389Y1294028D01*
X7189774Y1293571D01*
X7176312Y1291285D01*
X7163257Y1287272D01*
X7150912Y1281531D01*
X7139431Y1274165D01*
X7128967Y1265377D01*
X7119823Y1255268D01*
X7112101Y1244041D01*
X7109155Y1237996D01*
X7106869Y1235049D01*
X7103719Y1233119D01*
X7100062Y1232458D01*
X6860235Y1230985D01*
X6852005Y1230172D01*
X6844385Y1227836D01*
X6837273Y1224076D01*
X6830771Y1218641D01*
X5965901Y353872D01*
X5962650Y351637D01*
X5958789Y350875D01*
X1111046Y350875D01*
X1107135Y351688D01*
X1103833Y353872D01*
X403860Y1053947D01*
X401726Y1057249D01*
X400862Y1061161D01*
X400862Y1718818D01*
X401726Y1722729D01*
X403860Y1726031D01*
X503174Y1825345D01*
X506476Y1827530D01*
X510336Y1828292D01*
X686663Y1828292D01*
X690118Y1827682D01*
X693166Y1825955D01*
X695401Y1823313D01*
X702614Y1811274D01*
X711047Y1800504D01*
X720852Y1791004D01*
X731926Y1782927D01*
X743864Y1776323D01*
X756615Y1771396D01*
X769924Y1768246D01*
X783539Y1766874D01*
X797204Y1767332D01*
X810717Y1769618D01*
X823772Y1773682D01*
X836168Y1779422D01*
X847750Y1786788D01*
X858164Y1795627D01*
X867308Y1805736D01*
X875080Y1817014D01*
X881227Y1829257D01*
X885698Y1842160D01*
X888441Y1855571D01*
X889355Y1869186D01*
X888441Y1882851D01*
X885698Y1896262D01*
X881227Y1909165D01*
X875080Y1921408D01*
X867308Y1932686D01*
X858164Y1942795D01*
X847750Y1951634D01*
X836168Y1959000D01*
X823772Y1964740D01*
X810717Y1968804D01*
X797204Y1971090D01*
X783539Y1971548D01*
X769924Y1970176D01*
X756615Y1967026D01*
X743864Y1962099D01*
X731926Y1955495D01*
X720852Y1947418D01*
X711047Y1937867D01*
X702614Y1927148D01*
X695401Y1915109D01*
X693166Y1912467D01*
X690118Y1910740D01*
X686663Y1910130D01*
X489661Y1910130D01*
X481228Y1909267D01*
X473557Y1906981D01*
X466496Y1903171D01*
X459892Y1897786D01*
X331419Y1769262D01*
X326034Y1762709D01*
X322224Y1755648D01*
X319887Y1747977D01*
X319074Y1739493D01*
X319074Y1040485D01*
X319887Y1032002D01*
X322224Y1024382D01*
X326034Y1017320D01*
X331419Y1010716D01*
X820674Y521411D01*
X821791Y520496D01*
X1060551Y281432D01*
X1067155Y275996D01*
X1074216Y272237D01*
X1081887Y269900D01*
G37*
G36*
X11599976Y372516D02*
G01*
X11615369Y373430D01*
X11630456Y376224D01*
X11645188Y380796D01*
X11659260Y387096D01*
X11672417Y395071D01*
X11684558Y404571D01*
X11695430Y415442D01*
X11704878Y427583D01*
X11712905Y440740D01*
X11719153Y454812D01*
X11723776Y469493D01*
X11726519Y484632D01*
X11727434Y499973D01*
X11726519Y515366D01*
X11723776Y530504D01*
X11719153Y545185D01*
X11712905Y559257D01*
X11704878Y572414D01*
X11695430Y584555D01*
X11684558Y595426D01*
X11672417Y604926D01*
X11659260Y612902D01*
X11645188Y619201D01*
X11630456Y623773D01*
X11615369Y626567D01*
X11599976Y627481D01*
X11584635Y626567D01*
X11569446Y623773D01*
X11554815Y619201D01*
X11540693Y612902D01*
X11527536Y604926D01*
X11515394Y595426D01*
X11504523Y584555D01*
X11495074Y572414D01*
X11487048Y559257D01*
X11480800Y545185D01*
X11476177Y530504D01*
X11473434Y515366D01*
X11472519Y499973D01*
X11473434Y484632D01*
X11476177Y469493D01*
X11480800Y454812D01*
X11487048Y440740D01*
X11495074Y427583D01*
X11504523Y415442D01*
X11515394Y404571D01*
X11527536Y395071D01*
X11540693Y387096D01*
X11554815Y380796D01*
X11569446Y376224D01*
X11584635Y373430D01*
G37*
G36*
X499973Y372516D02*
G01*
X515366Y373430D01*
X530504Y376224D01*
X545185Y380796D01*
X559206Y387096D01*
X572414Y395071D01*
X584504Y404571D01*
X595376Y415442D01*
X604926Y427583D01*
X612851Y440740D01*
X619201Y454812D01*
X623773Y469493D01*
X626516Y484632D01*
X627481Y499973D01*
X626516Y515366D01*
X623773Y530504D01*
X619201Y545185D01*
X612851Y559257D01*
X604926Y572414D01*
X595376Y584555D01*
X584504Y595426D01*
X572414Y604926D01*
X559206Y612902D01*
X545185Y619201D01*
X530504Y623773D01*
X515366Y626567D01*
X499973Y627481D01*
X484581Y626567D01*
X469442Y623773D01*
X454761Y619201D01*
X440791Y612902D01*
X427532Y604926D01*
X415442Y595426D01*
X404571Y584555D01*
X395071Y572414D01*
X387096Y559257D01*
X380746Y545185D01*
X376174Y530504D01*
X373430Y515366D01*
X372465Y499973D01*
X373430Y484632D01*
X376174Y469493D01*
X380746Y454812D01*
X387096Y440740D01*
X395071Y427583D01*
X404571Y415442D01*
X415442Y404571D01*
X427532Y395071D01*
X440791Y387096D01*
X454761Y380796D01*
X469442Y376224D01*
X484581Y373430D01*
G37*
G36*
X9042146Y497687D02*
G01*
X9185808Y497687D01*
X9192158Y498398D01*
X9197594Y500329D01*
X9202470Y503377D01*
X9206585Y507492D01*
X9209633Y512368D01*
X9211564Y517855D01*
X9212275Y524154D01*
X9212275Y667816D01*
X9211564Y674166D01*
X9209633Y679602D01*
X9206585Y684530D01*
X9202470Y688594D01*
X9197594Y691692D01*
X9192158Y693623D01*
X9185808Y694334D01*
X9042146Y694334D01*
X9035796Y693623D01*
X9030360Y691692D01*
X9025483Y688594D01*
X9021419Y684530D01*
X9018270Y679602D01*
X9016339Y674166D01*
X9015628Y667816D01*
X9015628Y524154D01*
X9016339Y517855D01*
X9018270Y512368D01*
X9021419Y507492D01*
X9025483Y503377D01*
X9030360Y500329D01*
X9035796Y498398D01*
G37*
G36*
X8599271Y497941D02*
G01*
X8612733Y497941D01*
X8625992Y499770D01*
X8638946Y503377D01*
X8651189Y508711D01*
X8662619Y515721D01*
X8673084Y524154D01*
X8682177Y533958D01*
X8689949Y544931D01*
X8696096Y556869D01*
X8700617Y569468D01*
X8703360Y582625D01*
X8704224Y595985D01*
X8703360Y609396D01*
X8700617Y622503D01*
X8696096Y635152D01*
X8689949Y647090D01*
X8683701Y655878D01*
X8682380Y658672D01*
X8681923Y661720D01*
X8681923Y690372D01*
X8682685Y694232D01*
X8684869Y697534D01*
X8788400Y801116D01*
X8791702Y803300D01*
X8795613Y804113D01*
X10492587Y804164D01*
X10501528Y804976D01*
X10503916Y805383D01*
X10512501Y807516D01*
X10514888Y808278D01*
X10523067Y811682D01*
X10532922Y817372D01*
X10541762Y824484D01*
X10755528Y1038250D01*
X10761116Y1045057D01*
X10767212Y1054709D01*
X10768330Y1056894D01*
X10771733Y1065123D01*
X10774578Y1076096D01*
X10775035Y1078484D01*
X10775797Y1087374D01*
X10775797Y4480356D01*
X10775035Y4489196D01*
X10772444Y4500270D01*
X10771733Y4502556D01*
X10768330Y4510786D01*
X10767212Y4512970D01*
X10761116Y4522622D01*
X10755528Y4529480D01*
X10465054Y4819954D01*
X10463123Y4822647D01*
X10462158Y4825796D01*
X10460583Y4837430D01*
X10456976Y4850587D01*
X10451744Y4863134D01*
X10444734Y4874869D01*
X10436250Y4885588D01*
X10426446Y4895037D01*
X10415473Y4903114D01*
X10403535Y4909667D01*
X10390835Y4914595D01*
X10377576Y4917744D01*
X10363962Y4919116D01*
X10350347Y4918659D01*
X10336885Y4916373D01*
X10323931Y4912360D01*
X10311485Y4906619D01*
X10300004Y4899253D01*
X10289590Y4890465D01*
X10280446Y4880356D01*
X10272725Y4869129D01*
X10266578Y4856937D01*
X10262158Y4844084D01*
X10259415Y4830673D01*
X10258450Y4817110D01*
X10259415Y4803495D01*
X10262158Y4790135D01*
X10266578Y4777232D01*
X10272725Y4765040D01*
X10280446Y4753813D01*
X10289590Y4743704D01*
X10300004Y4734915D01*
X10311485Y4727549D01*
X10323931Y4721809D01*
X10336885Y4717796D01*
X10350957Y4715510D01*
X10354665Y4714646D01*
X10357764Y4712512D01*
X10621060Y4449216D01*
X10623296Y4445914D01*
X10624108Y4442053D01*
X10624108Y1125626D01*
X10623296Y1121765D01*
X10621060Y1118463D01*
X10461498Y958900D01*
X10458196Y956665D01*
X10454335Y955903D01*
X8757310Y955852D01*
X8748471Y955040D01*
X8746083Y954633D01*
X8737396Y952449D01*
X8735110Y951687D01*
X8724646Y947216D01*
X8715044Y941171D01*
X8708237Y935532D01*
X8552332Y779729D01*
X8544814Y770940D01*
X8543340Y768908D01*
X8537651Y759104D01*
X8534247Y750874D01*
X8533485Y748538D01*
X8531352Y739902D01*
X8530082Y728624D01*
X8530082Y661720D01*
X8529624Y658672D01*
X8528253Y655878D01*
X8521954Y647090D01*
X8515807Y635152D01*
X8511387Y622503D01*
X8508644Y609396D01*
X8507730Y595985D01*
X8508644Y582625D01*
X8511387Y569468D01*
X8515807Y556869D01*
X8521954Y544931D01*
X8529726Y533958D01*
X8538921Y524154D01*
X8549335Y515721D01*
X8560714Y508711D01*
X8573058Y503377D01*
X8585962Y499770D01*
G37*
G36*
X8902496Y507593D02*
G01*
X8905189Y508711D01*
X8916619Y515721D01*
X8927084Y524154D01*
X8936177Y533958D01*
X8943949Y544931D01*
X8948369Y553466D01*
X8902496Y553466D01*
G37*
G36*
X8817406Y507593D02*
G01*
X8817406Y553466D01*
X8771585Y553466D01*
X8775954Y544931D01*
X8783726Y533958D01*
X8792921Y524154D01*
X8803335Y515721D01*
X8814714Y508711D01*
G37*
G36*
X8771585Y638556D02*
G01*
X8817406Y638556D01*
X8817406Y684428D01*
X8814714Y683260D01*
X8803335Y676300D01*
X8792921Y667816D01*
X8783726Y658012D01*
X8775954Y647090D01*
G37*
G36*
X8902496Y638556D02*
G01*
X8948369Y638556D01*
X8943949Y647090D01*
X8936177Y658012D01*
X8927084Y667816D01*
X8916619Y676300D01*
X8905189Y683260D01*
X8902496Y684428D01*
G37*
G36*
X742391Y761136D02*
G01*
X742391Y808583D01*
X694893Y808583D01*
X695604Y807008D01*
X702614Y795274D01*
X711047Y784504D01*
X720852Y775004D01*
X731926Y766927D01*
G37*
G36*
X3028391Y761136D02*
G01*
X3028391Y808583D01*
X2980893Y808583D01*
X2988564Y795274D01*
X2997047Y784504D01*
X3006852Y775004D01*
X3017926Y766927D01*
G37*
G36*
X831596Y761288D02*
G01*
X836168Y763422D01*
X847750Y770788D01*
X858164Y779627D01*
X867308Y789736D01*
X875080Y801014D01*
X878941Y808583D01*
X831596Y808583D01*
G37*
G36*
X3117596Y761288D02*
G01*
X3122168Y763422D01*
X3133699Y770788D01*
X3144164Y779627D01*
X3153308Y789736D01*
X3161080Y801014D01*
X3164890Y808583D01*
X3117596Y808583D01*
G37*
G36*
X7124344Y835863D02*
G01*
X7275626Y835863D01*
X7281976Y836625D01*
X7287412Y838504D01*
X7292289Y841603D01*
X7296353Y845667D01*
X7299452Y850595D01*
X7301331Y856030D01*
X7302144Y862380D01*
X7302144Y1013612D01*
X7301331Y1019962D01*
X7299452Y1025398D01*
X7296353Y1030325D01*
X7292289Y1034389D01*
X7287412Y1037488D01*
X7281976Y1039368D01*
X7275626Y1040079D01*
X7124344Y1040079D01*
X7117994Y1039368D01*
X7112558Y1037488D01*
X7107681Y1034389D01*
X7103567Y1030325D01*
X7100519Y1025398D01*
X7098588Y1019962D01*
X7097928Y1013612D01*
X7097928Y862380D01*
X7098588Y856030D01*
X7100519Y850595D01*
X7103567Y845667D01*
X7107681Y841603D01*
X7112558Y838504D01*
X7117994Y836625D01*
G37*
G36*
X5659983Y881634D02*
G01*
X5669737Y882497D01*
X5679287Y885037D01*
X5688126Y889203D01*
X5696762Y895248D01*
X5699556Y896619D01*
X5702604Y897077D01*
X6167323Y897077D01*
X6170371Y896619D01*
X6173216Y895248D01*
X6181801Y889203D01*
X6190691Y885037D01*
X6200190Y882497D01*
X6209944Y881634D01*
X6219799Y882497D01*
X6229248Y885037D01*
X6238189Y889203D01*
X6246215Y894842D01*
X6253124Y901750D01*
X6258814Y909828D01*
X6262928Y918718D01*
X6265519Y928217D01*
X6266332Y937971D01*
X6265519Y947775D01*
X6262928Y957275D01*
X6258814Y966165D01*
X6253124Y974242D01*
X6246215Y981151D01*
X6238189Y986790D01*
X6229248Y990955D01*
X6219799Y993495D01*
X6209944Y994359D01*
X6200190Y993495D01*
X6190691Y990955D01*
X6181801Y986790D01*
X6173216Y980744D01*
X6170371Y979373D01*
X6167323Y978916D01*
X5702604Y978916D01*
X5699556Y979373D01*
X5696762Y980744D01*
X5688126Y986790D01*
X5679287Y990955D01*
X5669737Y993495D01*
X5659983Y994359D01*
X5650230Y993495D01*
X5640730Y990955D01*
X5631789Y986790D01*
X5623814Y981151D01*
X5616803Y974242D01*
X5611215Y966165D01*
X5607050Y957275D01*
X5604459Y947775D01*
X5603646Y937971D01*
X5604459Y928217D01*
X5607050Y918718D01*
X5611215Y909828D01*
X5616803Y901750D01*
X5623814Y894842D01*
X5631789Y889203D01*
X5640730Y885037D01*
X5650230Y882497D01*
G37*
G36*
X831596Y897788D02*
G01*
X878941Y897788D01*
X875080Y905408D01*
X867308Y916686D01*
X858164Y926795D01*
X847750Y935634D01*
X836168Y943000D01*
X831596Y945134D01*
G37*
G36*
X3117596Y897788D02*
G01*
X3164890Y897788D01*
X3161080Y905408D01*
X3153308Y916686D01*
X3144164Y926795D01*
X3133699Y935634D01*
X3122168Y943000D01*
X3117596Y945134D01*
G37*
G36*
X694893Y897788D02*
G01*
X742391Y897788D01*
X742391Y945286D01*
X731926Y939495D01*
X720852Y931418D01*
X711047Y921867D01*
X702614Y911148D01*
X695604Y899363D01*
G37*
G36*
X2980893Y897788D02*
G01*
X3028391Y897788D01*
X3028391Y945286D01*
X3017926Y939495D01*
X3006852Y931418D01*
X2997047Y921867D01*
X2988564Y911148D01*
G37*
G36*
X3760470Y959103D02*
G01*
X5299506Y959103D01*
X5307939Y959916D01*
X5315610Y962253D01*
X5322671Y966012D01*
X5329224Y971448D01*
X5753912Y1396136D01*
X5757265Y1398320D01*
X5761126Y1399082D01*
X7103364Y1399082D01*
X7106513Y1398574D01*
X7109409Y1397050D01*
X7111746Y1394663D01*
X7119924Y1382725D01*
X7128967Y1372616D01*
X7139431Y1363827D01*
X7150912Y1356461D01*
X7163257Y1350721D01*
X7176312Y1346708D01*
X7189774Y1344422D01*
X7203389Y1343964D01*
X7217003Y1345336D01*
X7230262Y1348486D01*
X7242962Y1353413D01*
X7254900Y1359966D01*
X7265873Y1368044D01*
X7275728Y1377543D01*
X7284110Y1388211D01*
X7291070Y1399946D01*
X7296403Y1412494D01*
X7300010Y1425651D01*
X7301839Y1439164D01*
X7301839Y1452829D01*
X7300010Y1466342D01*
X7296403Y1479499D01*
X7291070Y1492046D01*
X7284110Y1503781D01*
X7275728Y1514449D01*
X7265873Y1523949D01*
X7254900Y1532026D01*
X7242962Y1538579D01*
X7230262Y1543507D01*
X7217003Y1546656D01*
X7203389Y1548028D01*
X7189774Y1547571D01*
X7176312Y1545285D01*
X7163257Y1541272D01*
X7150912Y1535531D01*
X7139431Y1528165D01*
X7128967Y1519377D01*
X7119823Y1509268D01*
X7112101Y1498041D01*
X7106310Y1486458D01*
X7104024Y1483512D01*
X7100874Y1481582D01*
X7097217Y1480921D01*
X5740501Y1480921D01*
X5731967Y1480058D01*
X5724398Y1477721D01*
X5717286Y1473962D01*
X5710682Y1468577D01*
X5285994Y1043889D01*
X5282742Y1041653D01*
X5278882Y1040892D01*
X3781196Y1040892D01*
X3777234Y1041653D01*
X3773932Y1043889D01*
X3603853Y1213967D01*
X3601669Y1217269D01*
X3600907Y1221130D01*
X3600907Y2719476D01*
X3600094Y2727960D01*
X3597706Y2735630D01*
X3593947Y2742692D01*
X3588562Y2749296D01*
X3424021Y2913786D01*
X3417519Y2919171D01*
X3410407Y2922981D01*
X3402787Y2925267D01*
X3394303Y2926130D01*
X3173069Y2926130D01*
X3169412Y2926791D01*
X3166262Y2928721D01*
X3163976Y2931718D01*
X3161080Y2937408D01*
X3153308Y2948686D01*
X3144164Y2958795D01*
X3133699Y2967634D01*
X3122168Y2975000D01*
X3109772Y2980740D01*
X3096717Y2984804D01*
X3083255Y2987090D01*
X3069539Y2987548D01*
X3055924Y2986176D01*
X3042666Y2983026D01*
X3029864Y2978099D01*
X3017926Y2971495D01*
X3006852Y2963418D01*
X2997047Y2953867D01*
X2988564Y2943148D01*
X2981655Y2931363D01*
X2976321Y2918815D01*
X2972612Y2905607D01*
X2970885Y2892044D01*
X2970885Y2878378D01*
X2972612Y2864815D01*
X2976321Y2851607D01*
X2981655Y2839008D01*
X2988564Y2827274D01*
X2997047Y2816504D01*
X3006852Y2807004D01*
X3017926Y2798927D01*
X3029864Y2792323D01*
X3042666Y2787396D01*
X3055924Y2784246D01*
X3069539Y2782874D01*
X3083255Y2783332D01*
X3096717Y2785618D01*
X3109772Y2789682D01*
X3122168Y2795422D01*
X3133699Y2802788D01*
X3144164Y2811627D01*
X3153308Y2821736D01*
X3161080Y2833014D01*
X3163976Y2838704D01*
X3166262Y2841701D01*
X3169412Y2843631D01*
X3173069Y2844292D01*
X3373577Y2844292D01*
X3377488Y2843530D01*
X3380790Y2841345D01*
X3516071Y2706014D01*
X3518357Y2702712D01*
X3519119Y2698851D01*
X3519119Y1200505D01*
X3519932Y1192022D01*
X3522218Y1184351D01*
X3525977Y1177290D01*
X3531412Y1170736D01*
X3730701Y971448D01*
X3737305Y966012D01*
X3744315Y962253D01*
X3752037Y959916D01*
G37*
G36*
X783539Y1004874D02*
G01*
X797204Y1005332D01*
X810717Y1007618D01*
X823772Y1011682D01*
X836168Y1017422D01*
X847750Y1024788D01*
X858164Y1033627D01*
X867308Y1043736D01*
X875080Y1055014D01*
X881227Y1067257D01*
X885698Y1080160D01*
X888441Y1093571D01*
X889355Y1107186D01*
X888441Y1120851D01*
X885698Y1134262D01*
X881227Y1147165D01*
X875080Y1159408D01*
X867308Y1170686D01*
X858164Y1180795D01*
X847750Y1189634D01*
X836168Y1197000D01*
X823772Y1202740D01*
X810717Y1206804D01*
X797204Y1209090D01*
X783539Y1209548D01*
X769924Y1208176D01*
X756615Y1205026D01*
X743864Y1200099D01*
X731926Y1193495D01*
X720852Y1185418D01*
X711047Y1175867D01*
X702614Y1165148D01*
X695604Y1153363D01*
X690270Y1140815D01*
X686612Y1127607D01*
X684834Y1114044D01*
X684834Y1100378D01*
X686612Y1086815D01*
X690270Y1073607D01*
X695604Y1061008D01*
X702614Y1049274D01*
X711047Y1038504D01*
X720852Y1029004D01*
X731926Y1020927D01*
X743864Y1014323D01*
X756615Y1009396D01*
X769924Y1006246D01*
G37*
G36*
X3028391Y1015136D02*
G01*
X3028391Y1062583D01*
X2980893Y1062583D01*
X2988564Y1049274D01*
X2997047Y1038504D01*
X3006852Y1029004D01*
X3017926Y1020927D01*
G37*
G36*
X3117596Y1015288D02*
G01*
X3122168Y1017422D01*
X3133699Y1024788D01*
X3144164Y1033627D01*
X3153308Y1043736D01*
X3161080Y1055014D01*
X3164890Y1062583D01*
X3117596Y1062583D01*
G37*
G36*
X11480596Y1022400D02*
G01*
X11480596Y1087628D01*
X11415369Y1087628D01*
X11421719Y1076198D01*
X11431473Y1062431D01*
X11442801Y1049782D01*
X11455400Y1038504D01*
X11469217Y1028750D01*
G37*
G36*
X11618315Y1022400D02*
G01*
X11629796Y1028750D01*
X11643512Y1038504D01*
X11656212Y1049782D01*
X11667439Y1062431D01*
X11677294Y1076198D01*
X11683542Y1087628D01*
X11618315Y1087628D01*
G37*
G36*
X3117596Y1151788D02*
G01*
X3164890Y1151788D01*
X3161080Y1159408D01*
X3153308Y1170686D01*
X3144164Y1180795D01*
X3133699Y1189634D01*
X3122168Y1197000D01*
X3117596Y1199134D01*
G37*
G36*
X2980893Y1151788D02*
G01*
X3028391Y1151788D01*
X3028391Y1199286D01*
X3017926Y1193495D01*
X3006852Y1185418D01*
X2997047Y1175867D01*
X2988564Y1165148D01*
G37*
G36*
X7920024Y1195120D02*
G01*
X7934553Y1196035D01*
X7948828Y1198727D01*
X7962646Y1203248D01*
X7975803Y1209446D01*
X7988096Y1217218D01*
X7999272Y1226515D01*
X8009280Y1237132D01*
X8017865Y1248918D01*
X8024825Y1261668D01*
X8030159Y1275181D01*
X8033867Y1289304D01*
X8035594Y1303731D01*
X8035594Y1318260D01*
X8033867Y1332687D01*
X8030159Y1346809D01*
X8024825Y1360322D01*
X8017865Y1373073D01*
X8009280Y1384858D01*
X7999272Y1395476D01*
X7988096Y1404772D01*
X7975803Y1412544D01*
X7962646Y1418742D01*
X7948828Y1423263D01*
X7934553Y1425956D01*
X7920024Y1426870D01*
X7905496Y1425956D01*
X7891119Y1423263D01*
X7877302Y1418742D01*
X7864144Y1412544D01*
X7851851Y1404772D01*
X7840624Y1395476D01*
X7830667Y1384858D01*
X7822184Y1373073D01*
X7815122Y1360322D01*
X7809788Y1346809D01*
X7806181Y1332687D01*
X7804353Y1318260D01*
X7804353Y1303731D01*
X7806181Y1289304D01*
X7809788Y1275181D01*
X7815122Y1261668D01*
X7822184Y1248918D01*
X7830667Y1237132D01*
X7840624Y1226515D01*
X7851851Y1217218D01*
X7864144Y1209446D01*
X7877302Y1203248D01*
X7891119Y1198727D01*
X7905496Y1196035D01*
G37*
G36*
X11415369Y1225346D02*
G01*
X11480596Y1225346D01*
X11480596Y1290574D01*
X11469217Y1284274D01*
X11455400Y1274470D01*
X11442801Y1263192D01*
X11431473Y1250594D01*
X11421719Y1236776D01*
G37*
G36*
X11618315Y1225346D02*
G01*
X11683542Y1225346D01*
X11677294Y1236776D01*
X11667439Y1250594D01*
X11656212Y1263192D01*
X11643512Y1274470D01*
X11629796Y1284274D01*
X11618315Y1290574D01*
G37*
G36*
X11069777Y1241653D02*
G01*
X11088573Y1242161D01*
X11107166Y1244498D01*
X11125454Y1248664D01*
X11143335Y1254658D01*
X11160455Y1262380D01*
X11176660Y1271727D01*
X11191900Y1282700D01*
X11206022Y1295146D01*
X11218773Y1308912D01*
X11230102Y1323898D01*
X11239957Y1339900D01*
X11248085Y1356817D01*
X11254486Y1374495D01*
X11259108Y1392682D01*
X11261953Y1411224D01*
X11262868Y1430020D01*
X11261953Y1448765D01*
X11259108Y1467358D01*
X11254486Y1485544D01*
X11248085Y1503172D01*
X11239957Y1520088D01*
X11230102Y1536141D01*
X11218773Y1551127D01*
X11206022Y1564894D01*
X11191900Y1577289D01*
X11176660Y1588262D01*
X11160455Y1597660D01*
X11143335Y1605381D01*
X11125454Y1611376D01*
X11107166Y1615541D01*
X11088573Y1617878D01*
X11069777Y1618335D01*
X11051032Y1616964D01*
X11032540Y1613662D01*
X11014506Y1608582D01*
X10997031Y1601724D01*
X10980267Y1593138D01*
X10964519Y1582978D01*
X10949787Y1571244D01*
X10936376Y1558137D01*
X10924286Y1543761D01*
X10913719Y1528267D01*
X10904728Y1511757D01*
X10897412Y1494434D01*
X10891926Y1476502D01*
X10888167Y1458061D01*
X10886287Y1439418D01*
X10886287Y1420622D01*
X10888167Y1401927D01*
X10891926Y1383538D01*
X10897412Y1365554D01*
X10904728Y1348282D01*
X10913719Y1331772D01*
X10924286Y1316278D01*
X10936376Y1301851D01*
X10949787Y1288745D01*
X10964519Y1277061D01*
X10980267Y1266850D01*
X10997031Y1258265D01*
X11014506Y1251407D01*
X11032540Y1246327D01*
X11051032Y1243076D01*
G37*
G36*
X783539Y1258874D02*
G01*
X797204Y1259332D01*
X810717Y1261618D01*
X823772Y1265682D01*
X836168Y1271422D01*
X847750Y1278788D01*
X858164Y1287627D01*
X867308Y1297736D01*
X875080Y1309014D01*
X881227Y1321257D01*
X885698Y1334160D01*
X888441Y1347571D01*
X889355Y1361186D01*
X888441Y1374851D01*
X885698Y1388262D01*
X881227Y1401165D01*
X875080Y1413408D01*
X867308Y1424686D01*
X858164Y1434795D01*
X847750Y1443634D01*
X836168Y1451000D01*
X823772Y1456740D01*
X810717Y1460804D01*
X797204Y1463090D01*
X783539Y1463548D01*
X769924Y1462176D01*
X756615Y1459026D01*
X743864Y1454099D01*
X731926Y1447495D01*
X720852Y1439418D01*
X711047Y1429867D01*
X702614Y1419148D01*
X695604Y1407363D01*
X690270Y1394815D01*
X686612Y1381607D01*
X684834Y1368044D01*
X684834Y1354378D01*
X686612Y1340815D01*
X690270Y1327607D01*
X695604Y1315008D01*
X702614Y1303274D01*
X711047Y1292504D01*
X720852Y1283004D01*
X731926Y1274927D01*
X743864Y1268323D01*
X756615Y1263396D01*
X769924Y1260246D01*
G37*
G36*
X3069539Y1258874D02*
G01*
X3083255Y1259332D01*
X3096717Y1261618D01*
X3109772Y1265682D01*
X3122168Y1271422D01*
X3133699Y1278788D01*
X3144164Y1287627D01*
X3153308Y1297736D01*
X3161080Y1309014D01*
X3167278Y1321257D01*
X3171698Y1334160D01*
X3174441Y1347571D01*
X3175355Y1361186D01*
X3174441Y1374851D01*
X3171698Y1388262D01*
X3167278Y1401165D01*
X3161080Y1413408D01*
X3153308Y1424686D01*
X3144164Y1434795D01*
X3133699Y1443634D01*
X3122168Y1451000D01*
X3109772Y1456740D01*
X3096717Y1460804D01*
X3083255Y1463090D01*
X3069539Y1463548D01*
X3055924Y1462176D01*
X3042666Y1459026D01*
X3029864Y1454099D01*
X3017926Y1447495D01*
X3006852Y1439418D01*
X2997047Y1429867D01*
X2988564Y1419148D01*
X2981655Y1407363D01*
X2976321Y1394815D01*
X2972612Y1381607D01*
X2970885Y1368044D01*
X2970885Y1354378D01*
X2972612Y1340815D01*
X2976321Y1327607D01*
X2981655Y1315008D01*
X2988564Y1303274D01*
X2997047Y1292504D01*
X3006852Y1283004D01*
X3017926Y1274927D01*
X3029864Y1268323D01*
X3042666Y1263396D01*
X3055924Y1260246D01*
G37*
G36*
X9346539Y1337970D02*
G01*
X9360154Y1338427D01*
X9373616Y1340713D01*
X9386671Y1344726D01*
X9399016Y1350467D01*
X9410496Y1357833D01*
X9420910Y1366621D01*
X9430054Y1376730D01*
X9437776Y1387957D01*
X9443923Y1400149D01*
X9448444Y1413002D01*
X9451187Y1426413D01*
X9452051Y1439976D01*
X9451187Y1453591D01*
X9448444Y1466951D01*
X9443923Y1479854D01*
X9437776Y1491996D01*
X9430054Y1503273D01*
X9420910Y1513382D01*
X9410496Y1522171D01*
X9399016Y1529537D01*
X9386671Y1535277D01*
X9373616Y1539290D01*
X9360154Y1541576D01*
X9346539Y1542034D01*
X9333026Y1540662D01*
X9319717Y1537512D01*
X9306966Y1532585D01*
X9295028Y1526032D01*
X9284055Y1517954D01*
X9274251Y1508455D01*
X9265767Y1497787D01*
X9258858Y1486052D01*
X9253524Y1473504D01*
X9249918Y1460347D01*
X9248089Y1446834D01*
X9248089Y1433169D01*
X9249918Y1419656D01*
X9253524Y1406499D01*
X9258858Y1393952D01*
X9265767Y1382217D01*
X9274251Y1371498D01*
X9284055Y1362049D01*
X9295028Y1353972D01*
X9306966Y1347419D01*
X9319717Y1342491D01*
X9333026Y1339342D01*
G37*
G36*
X10432694Y1455166D02*
G01*
X10446308Y1455166D01*
X10459770Y1456944D01*
X10472928Y1460550D01*
X10485526Y1465884D01*
X10497210Y1472844D01*
X10507980Y1481277D01*
X10517428Y1491081D01*
X10525556Y1502054D01*
X10532059Y1514043D01*
X10536936Y1526743D01*
X10540187Y1540002D01*
X10541457Y1553616D01*
X10541000Y1567230D01*
X10538815Y1580692D01*
X10534751Y1593697D01*
X10528960Y1606092D01*
X10521696Y1617573D01*
X10512856Y1627987D01*
X10502696Y1637131D01*
X10491470Y1644853D01*
X10479328Y1651000D01*
X10466476Y1655470D01*
X10453116Y1658162D01*
X10439501Y1659077D01*
X10425887Y1658162D01*
X10412526Y1655470D01*
X10399572Y1651000D01*
X10387431Y1644853D01*
X10376204Y1637131D01*
X10366044Y1627987D01*
X10357307Y1617573D01*
X10349941Y1606092D01*
X10344251Y1593697D01*
X10340187Y1580692D01*
X10337901Y1567230D01*
X10337444Y1553616D01*
X10338816Y1540002D01*
X10341965Y1526743D01*
X10346842Y1514043D01*
X10353446Y1502054D01*
X10361472Y1491081D01*
X10371023Y1481277D01*
X10381691Y1472844D01*
X10393476Y1465884D01*
X10405973Y1460550D01*
X10419181Y1456944D01*
G37*
G36*
X4274312Y1470863D02*
G01*
X4425594Y1470863D01*
X4431944Y1471625D01*
X4437380Y1473504D01*
X4442256Y1476603D01*
X4446371Y1480667D01*
X4449521Y1485595D01*
X4451350Y1491030D01*
X4452112Y1497380D01*
X4452112Y1648612D01*
X4451350Y1654962D01*
X4449521Y1660398D01*
X4446371Y1665325D01*
X4442256Y1669389D01*
X4437380Y1672488D01*
X4431944Y1674368D01*
X4425594Y1675079D01*
X4274312Y1675079D01*
X4268012Y1674368D01*
X4262526Y1672488D01*
X4257649Y1669389D01*
X4253585Y1665325D01*
X4250537Y1660398D01*
X4248607Y1654962D01*
X4247896Y1648612D01*
X4247896Y1624177D01*
X4247134Y1620316D01*
X4244949Y1617014D01*
X4241596Y1614779D01*
X4237685Y1614017D01*
X4088129Y1614017D01*
X4084269Y1614779D01*
X4080916Y1617014D01*
X4023766Y1674012D01*
X4021582Y1677314D01*
X4020769Y1681175D01*
X4020769Y1998776D01*
X4021582Y2002637D01*
X4023766Y2005939D01*
X4194048Y2176170D01*
X4197350Y2178354D01*
X4201210Y2179167D01*
X4979416Y2179167D01*
X4987899Y2179980D01*
X4995519Y2182317D01*
X5002580Y2186076D01*
X5009134Y2191512D01*
X6213805Y3396132D01*
X6217107Y3398316D01*
X6220968Y3399129D01*
X7069581Y3399129D01*
X7078065Y3399942D01*
X7085685Y3402279D01*
X7092746Y3406038D01*
X7099300Y3411474D01*
X7224014Y3536137D01*
X7227316Y3538321D01*
X7231176Y3539083D01*
X9243110Y3541471D01*
X9246819Y3540760D01*
X9250121Y3538728D01*
X9252305Y3535629D01*
X9253321Y3533444D01*
X9260687Y3521964D01*
X9269425Y3511550D01*
X9279585Y3502406D01*
X9290812Y3494684D01*
X9302953Y3488537D01*
X9315907Y3484067D01*
X9329267Y3481324D01*
X9342882Y3480409D01*
X9356496Y3481324D01*
X9369856Y3484067D01*
X9382709Y3488537D01*
X9394850Y3494684D01*
X9406077Y3502406D01*
X9416237Y3511550D01*
X9425076Y3521964D01*
X9432340Y3533444D01*
X9438132Y3545840D01*
X9442196Y3558844D01*
X9444380Y3572306D01*
X9444837Y3585921D01*
X9443567Y3599484D01*
X9440316Y3612743D01*
X9435439Y3625494D01*
X9428937Y3637432D01*
X9420809Y3648405D01*
X9411360Y3658209D01*
X9400590Y3666693D01*
X9388906Y3673652D01*
X9376308Y3678936D01*
X9363151Y3682542D01*
X9349689Y3684371D01*
X9336074Y3684371D01*
X9322562Y3682542D01*
X9309354Y3678936D01*
X9296857Y3673652D01*
X9285071Y3666693D01*
X9274403Y3658209D01*
X9264853Y3648405D01*
X9256826Y3637432D01*
X9251950Y3628593D01*
X9249664Y3625799D01*
X9246616Y3623970D01*
X9243009Y3623310D01*
X7210450Y3620871D01*
X7202017Y3620058D01*
X7194346Y3617722D01*
X7187285Y3613962D01*
X7180732Y3608527D01*
X7056069Y3483914D01*
X7052767Y3481679D01*
X7048957Y3480917D01*
X6200343Y3480917D01*
X6191910Y3480104D01*
X6184188Y3477768D01*
X6177178Y3474008D01*
X6170574Y3468573D01*
X4965903Y2263952D01*
X4962601Y2261717D01*
X4958740Y2260955D01*
X4180535Y2260955D01*
X4172051Y2260142D01*
X4164380Y2257806D01*
X4157319Y2254046D01*
X4150766Y2248611D01*
X3951376Y2049170D01*
X3945940Y2042617D01*
X3942130Y2035556D01*
X3939794Y2027885D01*
X3939032Y2019401D01*
X3939032Y1660499D01*
X3939794Y1652016D01*
X3942130Y1644345D01*
X3945940Y1637283D01*
X3951274Y1630730D01*
X4037787Y1544523D01*
X4044289Y1539138D01*
X4051401Y1535379D01*
X4059021Y1533042D01*
X4067505Y1532229D01*
X4237685Y1532229D01*
X4241596Y1531416D01*
X4244949Y1529232D01*
X4247134Y1525930D01*
X4247896Y1522069D01*
X4247896Y1497380D01*
X4248607Y1491030D01*
X4250537Y1485595D01*
X4253585Y1480667D01*
X4257649Y1476603D01*
X4262526Y1473504D01*
X4268012Y1471625D01*
G37*
G36*
X783539Y1512874D02*
G01*
X797204Y1513332D01*
X810717Y1515618D01*
X823772Y1519682D01*
X836168Y1525422D01*
X847750Y1532788D01*
X858164Y1541627D01*
X867308Y1551736D01*
X875080Y1563014D01*
X881227Y1575257D01*
X885698Y1588160D01*
X888441Y1601571D01*
X889355Y1615186D01*
X888441Y1628851D01*
X885698Y1642262D01*
X881227Y1655165D01*
X875080Y1667408D01*
X867308Y1678686D01*
X858164Y1688795D01*
X847750Y1697634D01*
X836168Y1705000D01*
X823772Y1710740D01*
X810717Y1714804D01*
X797204Y1717090D01*
X783539Y1717548D01*
X769924Y1716176D01*
X756615Y1713026D01*
X743864Y1708099D01*
X731926Y1701495D01*
X720852Y1693418D01*
X711047Y1683867D01*
X702614Y1673148D01*
X695604Y1661363D01*
X690270Y1648815D01*
X686612Y1635607D01*
X684834Y1622044D01*
X684834Y1608378D01*
X686612Y1594815D01*
X690270Y1581607D01*
X695604Y1569008D01*
X702614Y1557274D01*
X711047Y1546504D01*
X720852Y1537004D01*
X731926Y1528927D01*
X743864Y1522323D01*
X756615Y1517396D01*
X769924Y1514246D01*
G37*
G36*
X3069539Y1512874D02*
G01*
X3083255Y1513332D01*
X3096717Y1515618D01*
X3109772Y1519682D01*
X3122168Y1525422D01*
X3133699Y1532788D01*
X3144164Y1541627D01*
X3153308Y1551736D01*
X3161080Y1563014D01*
X3167278Y1575257D01*
X3171698Y1588160D01*
X3174441Y1601571D01*
X3175355Y1615186D01*
X3174441Y1628851D01*
X3171698Y1642262D01*
X3167278Y1655165D01*
X3161080Y1667408D01*
X3153308Y1678686D01*
X3144164Y1688795D01*
X3133699Y1697634D01*
X3122168Y1705000D01*
X3109772Y1710740D01*
X3096717Y1714804D01*
X3083255Y1717090D01*
X3069539Y1717548D01*
X3055924Y1716176D01*
X3042666Y1713026D01*
X3029864Y1708099D01*
X3017926Y1701495D01*
X3006852Y1693418D01*
X2997047Y1683867D01*
X2988564Y1673148D01*
X2981655Y1661363D01*
X2976321Y1648815D01*
X2972612Y1635607D01*
X2970885Y1622044D01*
X2970885Y1608378D01*
X2972612Y1594815D01*
X2976321Y1581607D01*
X2981655Y1569008D01*
X2988564Y1557274D01*
X2997047Y1546504D01*
X3006852Y1537004D01*
X3017926Y1528927D01*
X3029864Y1522323D01*
X3042666Y1517396D01*
X3055924Y1514246D01*
G37*
G36*
X9346539Y1587957D02*
G01*
X9360154Y1588414D01*
X9373616Y1590700D01*
X9386671Y1594713D01*
X9399016Y1600454D01*
X9410496Y1607820D01*
X9420910Y1616608D01*
X9430054Y1626717D01*
X9437776Y1637995D01*
X9443923Y1650136D01*
X9448444Y1663039D01*
X9451187Y1676400D01*
X9452051Y1690014D01*
X9451187Y1703578D01*
X9448444Y1716989D01*
X9443923Y1729841D01*
X9437776Y1742033D01*
X9430054Y1753260D01*
X9420910Y1763369D01*
X9410496Y1772157D01*
X9399016Y1779524D01*
X9386671Y1785264D01*
X9373616Y1789277D01*
X9360154Y1791563D01*
X9346539Y1792020D01*
X9333026Y1790649D01*
X9319717Y1787499D01*
X9306966Y1782572D01*
X9295028Y1776018D01*
X9284055Y1767941D01*
X9274251Y1758492D01*
X9265767Y1747774D01*
X9258757Y1735886D01*
X9256471Y1733245D01*
X9253423Y1731467D01*
X9250019Y1730908D01*
X7581188Y1730908D01*
X7577226Y1731670D01*
X7573924Y1733854D01*
X7443876Y1863953D01*
X7441641Y1867255D01*
X7440930Y1871167D01*
X7440930Y2386888D01*
X7441641Y2390749D01*
X7443876Y2394051D01*
X7447178Y2396236D01*
X7451039Y2397048D01*
X7454900Y2396236D01*
X7458202Y2394051D01*
X7530744Y2321560D01*
X7537297Y2316124D01*
X7544358Y2312365D01*
X7552080Y2310028D01*
X7560564Y2309215D01*
X7928762Y2309215D01*
X7932623Y2308402D01*
X7935925Y2306218D01*
X8330539Y1911350D01*
X8337194Y1905914D01*
X8344204Y1902155D01*
X8351926Y1899818D01*
X8360359Y1899005D01*
X9250121Y1899005D01*
X9253524Y1898396D01*
X9256572Y1896668D01*
X9258858Y1894027D01*
X9265767Y1882241D01*
X9274251Y1871522D01*
X9284055Y1862023D01*
X9295028Y1853946D01*
X9306966Y1847392D01*
X9319717Y1842516D01*
X9333026Y1839315D01*
X9346539Y1837943D01*
X9360154Y1838401D01*
X9373616Y1840687D01*
X9386671Y1844751D01*
X9399016Y1850491D01*
X9410496Y1857806D01*
X9420910Y1866595D01*
X9430054Y1876704D01*
X9437776Y1887982D01*
X9443923Y1900123D01*
X9448444Y1913026D01*
X9451187Y1926386D01*
X9452051Y1940001D01*
X9451187Y1953615D01*
X9448444Y1966975D01*
X9443923Y1979828D01*
X9437776Y1992020D01*
X9430054Y2003247D01*
X9420910Y2013356D01*
X9410496Y2022195D01*
X9399016Y2029510D01*
X9386671Y2035251D01*
X9373616Y2039315D01*
X9360154Y2041550D01*
X9346539Y2042007D01*
X9333026Y2040636D01*
X9319717Y2037486D01*
X9306966Y2032609D01*
X9295028Y2026056D01*
X9284055Y2017928D01*
X9274251Y2008479D01*
X9265767Y1997760D01*
X9258757Y1985772D01*
X9256471Y1983130D01*
X9253423Y1981403D01*
X9250019Y1980793D01*
X8381085Y1980793D01*
X8377123Y1981606D01*
X8373821Y1983790D01*
X7979206Y2378659D01*
X7972653Y2384094D01*
X7965592Y2387854D01*
X7957870Y2390190D01*
X7949387Y2391003D01*
X7581188Y2391003D01*
X7577277Y2391765D01*
X7573975Y2394000D01*
X7493914Y2474061D01*
X7491730Y2477363D01*
X7490917Y2481224D01*
X7490917Y3187293D01*
X7491425Y3190392D01*
X7492746Y3193135D01*
X7498892Y3201771D01*
X7502956Y3210712D01*
X7505496Y3220161D01*
X7506360Y3229965D01*
X7505496Y3239770D01*
X7502956Y3249218D01*
X7498892Y3258159D01*
X7493203Y3266186D01*
X7486294Y3273145D01*
X7478217Y3278784D01*
X7469276Y3282899D01*
X7459878Y3285439D01*
X7450023Y3286302D01*
X7440269Y3285439D01*
X7430770Y3282899D01*
X7421880Y3278784D01*
X7413853Y3273145D01*
X7406843Y3266186D01*
X7401255Y3258159D01*
X7397089Y3249218D01*
X7394549Y3239770D01*
X7393686Y3229965D01*
X7394549Y3220161D01*
X7397089Y3210712D01*
X7401255Y3201771D01*
X7407300Y3193135D01*
X7408621Y3190392D01*
X7409180Y3187293D01*
X7409180Y3163011D01*
X7408367Y3159099D01*
X7406131Y3155848D01*
X7402830Y3153613D01*
X7398969Y3152851D01*
X7395108Y3153613D01*
X7391755Y3155848D01*
X7338669Y3208934D01*
X7336637Y3211830D01*
X7335723Y3215233D01*
X7335367Y3219704D01*
X7332776Y3229152D01*
X7328662Y3238093D01*
X7323023Y3246120D01*
X7316063Y3253079D01*
X7308037Y3258718D01*
X7299096Y3262833D01*
X7289647Y3265373D01*
X7279843Y3266236D01*
X7270038Y3265373D01*
X7260640Y3262833D01*
X7251700Y3258718D01*
X7243622Y3253079D01*
X7236714Y3246120D01*
X7231024Y3238093D01*
X7226960Y3229152D01*
X7224369Y3219704D01*
X7223556Y3209899D01*
X7224369Y3200095D01*
X7226960Y3190646D01*
X7231024Y3181705D01*
X7236714Y3173679D01*
X7243622Y3166719D01*
X7251700Y3161080D01*
X7260640Y3156966D01*
X7270038Y3154426D01*
X7274509Y3154019D01*
X7277912Y3153105D01*
X7280808Y3151073D01*
X7356094Y3075838D01*
X7358278Y3072536D01*
X7359040Y3068624D01*
X7359040Y1850491D01*
X7359903Y1842007D01*
X7362240Y1834337D01*
X7366000Y1827275D01*
X7371435Y1820722D01*
X7530744Y1661414D01*
X7537297Y1656029D01*
X7544358Y1652219D01*
X7551978Y1649933D01*
X7560462Y1649069D01*
X9250019Y1649069D01*
X9253524Y1648460D01*
X9256471Y1646732D01*
X9258757Y1644091D01*
X9265767Y1632204D01*
X9274251Y1621536D01*
X9284055Y1612036D01*
X9295028Y1603959D01*
X9306966Y1597406D01*
X9319717Y1592478D01*
X9333026Y1589328D01*
G37*
G36*
X10229951Y1592224D02*
G01*
X10231526Y1592884D01*
X10243210Y1599844D01*
X10253980Y1608277D01*
X10263428Y1618081D01*
X10271556Y1629054D01*
X10277246Y1639570D01*
X10229951Y1639570D01*
G37*
G36*
X10141051Y1592224D02*
G01*
X10141051Y1639570D01*
X10093655Y1639570D01*
X10099446Y1629054D01*
X10107472Y1618081D01*
X10117023Y1608277D01*
X10127691Y1599844D01*
X10139476Y1592884D01*
G37*
G36*
X7203389Y1597964D02*
G01*
X7217003Y1599336D01*
X7230262Y1602486D01*
X7242962Y1607413D01*
X7254900Y1613966D01*
X7265873Y1622044D01*
X7275728Y1631543D01*
X7284110Y1642211D01*
X7291070Y1653946D01*
X7296403Y1666493D01*
X7300010Y1679651D01*
X7301839Y1693164D01*
X7301839Y1706829D01*
X7300010Y1720342D01*
X7296403Y1733499D01*
X7291070Y1746046D01*
X7284110Y1757781D01*
X7275728Y1768449D01*
X7265873Y1777949D01*
X7254900Y1786026D01*
X7242962Y1792579D01*
X7230262Y1797507D01*
X7217003Y1800656D01*
X7203389Y1802028D01*
X7189774Y1801571D01*
X7176312Y1799285D01*
X7163257Y1795272D01*
X7150912Y1789531D01*
X7139431Y1782165D01*
X7128967Y1773377D01*
X7119823Y1763268D01*
X7112101Y1752041D01*
X7105954Y1739849D01*
X7101535Y1726946D01*
X7098842Y1713585D01*
X7097928Y1699971D01*
X7098842Y1686407D01*
X7101535Y1673047D01*
X7105954Y1660143D01*
X7112101Y1647952D01*
X7119823Y1636725D01*
X7128967Y1626616D01*
X7139431Y1617827D01*
X7150912Y1610461D01*
X7163257Y1604721D01*
X7176312Y1600708D01*
X7189774Y1598422D01*
G37*
G36*
X10432694Y1709166D02*
G01*
X10446308Y1709166D01*
X10459770Y1710943D01*
X10472928Y1714550D01*
X10485526Y1719884D01*
X10497210Y1726844D01*
X10507980Y1735277D01*
X10517428Y1745081D01*
X10525556Y1756054D01*
X10532059Y1768043D01*
X10536936Y1780743D01*
X10540187Y1794002D01*
X10541457Y1807616D01*
X10541000Y1821230D01*
X10538815Y1834692D01*
X10534751Y1847697D01*
X10528960Y1860092D01*
X10521696Y1871573D01*
X10512856Y1881987D01*
X10502696Y1891131D01*
X10491470Y1898853D01*
X10479328Y1905000D01*
X10466476Y1909470D01*
X10453116Y1912162D01*
X10439501Y1913077D01*
X10425887Y1912162D01*
X10412526Y1909470D01*
X10399572Y1905000D01*
X10387431Y1898853D01*
X10376204Y1891131D01*
X10366044Y1881987D01*
X10357307Y1871573D01*
X10349941Y1860092D01*
X10344251Y1847697D01*
X10340187Y1834692D01*
X10337901Y1821230D01*
X10337444Y1807616D01*
X10338816Y1794002D01*
X10341965Y1780743D01*
X10346842Y1768043D01*
X10353446Y1756054D01*
X10361472Y1745081D01*
X10371023Y1735277D01*
X10381691Y1726844D01*
X10393476Y1719884D01*
X10405973Y1714550D01*
X10419181Y1710943D01*
G37*
G36*
X4274312Y1724863D02*
G01*
X4425594Y1724863D01*
X4431944Y1725625D01*
X4437380Y1727504D01*
X4442256Y1730603D01*
X4446371Y1734667D01*
X4449521Y1739595D01*
X4451350Y1745030D01*
X4452112Y1751380D01*
X4452112Y1775917D01*
X4452823Y1779828D01*
X4455058Y1783130D01*
X4458360Y1785315D01*
X4462221Y1786077D01*
X4946446Y1786077D01*
X4954930Y1786940D01*
X4962601Y1789226D01*
X4969662Y1793036D01*
X4976266Y1798421D01*
X6353962Y3176117D01*
X6357213Y3178302D01*
X6361125Y3179064D01*
X7079437Y3179064D01*
X7087920Y3179927D01*
X7095642Y3182264D01*
X7102703Y3186023D01*
X7109256Y3191408D01*
X7303973Y3386124D01*
X7307224Y3388309D01*
X7311136Y3389071D01*
X9058808Y3389071D01*
X9062669Y3388309D01*
X9065971Y3386124D01*
X9152128Y3299968D01*
X9158732Y3294532D01*
X9165793Y3290773D01*
X9173464Y3288436D01*
X9181947Y3287623D01*
X9230614Y3287623D01*
X9234474Y3286810D01*
X9237776Y3284626D01*
X9240012Y3281324D01*
X9240723Y3277463D01*
X9240723Y3252876D01*
X9241485Y3246577D01*
X9243415Y3241090D01*
X9246412Y3236214D01*
X9250578Y3232099D01*
X9255455Y3229051D01*
X9260890Y3227120D01*
X9267240Y3226409D01*
X9418523Y3226409D01*
X9424771Y3227120D01*
X9430308Y3229051D01*
X9435185Y3232099D01*
X9439249Y3236214D01*
X9442297Y3241090D01*
X9444228Y3246577D01*
X9444939Y3252876D01*
X9444939Y3277463D01*
X9445701Y3281324D01*
X9447987Y3284626D01*
X9451187Y3286810D01*
X9455150Y3287623D01*
X9497974Y3287623D01*
X9506508Y3288436D01*
X9514128Y3290773D01*
X9521240Y3294532D01*
X9527743Y3299968D01*
X9698583Y3470706D01*
X9703917Y3477310D01*
X9707778Y3484372D01*
X9710013Y3492042D01*
X9710877Y3500475D01*
X9710877Y4409490D01*
X9710013Y4417974D01*
X9707778Y4425645D01*
X9703917Y4432706D01*
X9698583Y4439259D01*
X9642449Y4495342D01*
X9640214Y4498644D01*
X9639503Y4502556D01*
X9639503Y4704842D01*
X9640214Y4708702D01*
X9642449Y4712004D01*
X9645751Y4714189D01*
X9649612Y4715002D01*
X9674199Y4715002D01*
X9680549Y4715713D01*
X9685985Y4717592D01*
X9690862Y4720691D01*
X9694976Y4724755D01*
X9698024Y4729683D01*
X9699955Y4735118D01*
X9700666Y4741468D01*
X9700666Y4892700D01*
X9699955Y4899050D01*
X9698024Y4904486D01*
X9694976Y4909413D01*
X9690862Y4913477D01*
X9685985Y4916576D01*
X9680549Y4918506D01*
X9674199Y4919218D01*
X9522917Y4919218D01*
X9516618Y4918506D01*
X9511131Y4916576D01*
X9506254Y4913477D01*
X9502190Y4909413D01*
X9499142Y4904486D01*
X9497212Y4899050D01*
X9496450Y4892700D01*
X9496450Y4741468D01*
X9497212Y4735118D01*
X9499142Y4729683D01*
X9502190Y4724755D01*
X9506254Y4720691D01*
X9511131Y4717592D01*
X9516618Y4715713D01*
X9522917Y4715002D01*
X9547555Y4715002D01*
X9551416Y4714189D01*
X9554667Y4712004D01*
X9556851Y4708702D01*
X9557664Y4704842D01*
X9557664Y4481880D01*
X9558477Y4473397D01*
X9560814Y4465777D01*
X9564573Y4458665D01*
X9570008Y4452112D01*
X9626142Y4396028D01*
X9628276Y4392726D01*
X9629089Y4388815D01*
X9629089Y3521151D01*
X9628276Y3517239D01*
X9626142Y3513937D01*
X9484512Y3372408D01*
X9481210Y3370173D01*
X9477349Y3369411D01*
X9455150Y3369411D01*
X9451187Y3370173D01*
X9447987Y3372408D01*
X9445701Y3375710D01*
X9444939Y3379571D01*
X9444939Y3404158D01*
X9444228Y3410458D01*
X9442297Y3415944D01*
X9439249Y3420821D01*
X9435185Y3424936D01*
X9430308Y3427984D01*
X9424771Y3429914D01*
X9418523Y3430625D01*
X9267240Y3430625D01*
X9260890Y3429914D01*
X9255455Y3427984D01*
X9250578Y3424936D01*
X9246412Y3420821D01*
X9243415Y3415944D01*
X9241485Y3410458D01*
X9240723Y3404158D01*
X9240723Y3379571D01*
X9240012Y3375710D01*
X9237776Y3372408D01*
X9234474Y3370173D01*
X9230614Y3369411D01*
X9202623Y3369411D01*
X9198762Y3370173D01*
X9195460Y3372408D01*
X9109303Y3458565D01*
X9102699Y3463950D01*
X9095587Y3467760D01*
X9087967Y3470046D01*
X9079484Y3470910D01*
X7290460Y3470910D01*
X7281976Y3470046D01*
X7274356Y3467760D01*
X7267244Y3463950D01*
X7260742Y3458565D01*
X7065975Y3263900D01*
X7062673Y3261664D01*
X7058812Y3260902D01*
X6340449Y3260902D01*
X6331966Y3260090D01*
X6324346Y3257753D01*
X6317335Y3253943D01*
X6310680Y3248558D01*
X4933035Y1870862D01*
X4929733Y1868678D01*
X4925872Y1867916D01*
X4462221Y1867916D01*
X4458360Y1868678D01*
X4455058Y1870862D01*
X4452823Y1874164D01*
X4452112Y1878075D01*
X4452112Y1902612D01*
X4451350Y1908962D01*
X4449521Y1914398D01*
X4446371Y1919325D01*
X4442256Y1923389D01*
X4437380Y1926488D01*
X4431944Y1928368D01*
X4425594Y1929079D01*
X4274312Y1929079D01*
X4268012Y1928368D01*
X4262526Y1926488D01*
X4257649Y1923389D01*
X4253585Y1919325D01*
X4250537Y1914398D01*
X4248607Y1908962D01*
X4247896Y1902612D01*
X4247896Y1751380D01*
X4248607Y1745030D01*
X4250537Y1739595D01*
X4253585Y1734667D01*
X4257649Y1730603D01*
X4262526Y1727504D01*
X4268012Y1725625D01*
G37*
G36*
X10093858Y1728470D02*
G01*
X10141051Y1728470D01*
X10141051Y1775663D01*
X10133431Y1771853D01*
X10122204Y1764131D01*
X10112044Y1754987D01*
X10103307Y1744573D01*
X10095941Y1733092D01*
G37*
G36*
X10229951Y1728470D02*
G01*
X10277094Y1728470D01*
X10274960Y1733092D01*
X10267696Y1744573D01*
X10258856Y1754987D01*
X10248696Y1764131D01*
X10237470Y1771853D01*
X10229951Y1775663D01*
G37*
G36*
X3028391Y1777136D02*
G01*
X3028391Y1824583D01*
X2980893Y1824583D01*
X2988564Y1811274D01*
X2997047Y1800504D01*
X3006852Y1791004D01*
X3017926Y1782927D01*
G37*
G36*
X3117596Y1777288D02*
G01*
X3122168Y1779422D01*
X3133699Y1786788D01*
X3144164Y1795627D01*
X3153308Y1805736D01*
X3161080Y1817014D01*
X3164890Y1824583D01*
X3117596Y1824583D01*
G37*
G36*
X10178694Y1836166D02*
G01*
X10192308Y1836166D01*
X10205770Y1837943D01*
X10218928Y1841550D01*
X10231526Y1846884D01*
X10243210Y1853844D01*
X10253980Y1862277D01*
X10263428Y1872081D01*
X10271556Y1883054D01*
X10278059Y1895043D01*
X10282936Y1907743D01*
X10286187Y1921002D01*
X10287457Y1934616D01*
X10287000Y1948230D01*
X10284815Y1961692D01*
X10280751Y1974697D01*
X10274960Y1987092D01*
X10267696Y1998573D01*
X10258856Y2008987D01*
X10248696Y2018131D01*
X10237470Y2025853D01*
X10225328Y2032000D01*
X10212476Y2036470D01*
X10199116Y2039162D01*
X10185501Y2040077D01*
X10171887Y2039162D01*
X10158526Y2036470D01*
X10145572Y2032000D01*
X10133431Y2025853D01*
X10122204Y2018131D01*
X10112044Y2008987D01*
X10103307Y1998573D01*
X10095941Y1987092D01*
X10090251Y1974697D01*
X10086187Y1961692D01*
X10083901Y1948230D01*
X10083444Y1934616D01*
X10084816Y1921002D01*
X10087965Y1907743D01*
X10092842Y1895043D01*
X10099446Y1883054D01*
X10107472Y1872081D01*
X10117023Y1862277D01*
X10127691Y1853844D01*
X10139476Y1846884D01*
X10151973Y1841550D01*
X10165181Y1837943D01*
G37*
G36*
X7203389Y1851964D02*
G01*
X7217003Y1853336D01*
X7230262Y1856486D01*
X7242962Y1861413D01*
X7254900Y1867966D01*
X7265873Y1876043D01*
X7275728Y1885543D01*
X7284110Y1896211D01*
X7291070Y1907946D01*
X7296403Y1920493D01*
X7300010Y1933651D01*
X7301839Y1947164D01*
X7301839Y1960829D01*
X7300010Y1974342D01*
X7296403Y1987499D01*
X7291070Y2000046D01*
X7284110Y2011781D01*
X7275728Y2022449D01*
X7265873Y2031949D01*
X7254900Y2040026D01*
X7242962Y2046579D01*
X7230262Y2051507D01*
X7217003Y2054656D01*
X7203389Y2056028D01*
X7189774Y2055571D01*
X7176312Y2053285D01*
X7163257Y2049272D01*
X7150912Y2043531D01*
X7139431Y2036165D01*
X7128967Y2027377D01*
X7119823Y2017268D01*
X7112101Y2006041D01*
X7105954Y1993849D01*
X7101535Y1980946D01*
X7098842Y1967585D01*
X7097928Y1953971D01*
X7098842Y1940407D01*
X7101535Y1927047D01*
X7105954Y1914143D01*
X7112101Y1901952D01*
X7119823Y1890725D01*
X7128967Y1880616D01*
X7139431Y1871827D01*
X7150912Y1864461D01*
X7163257Y1858721D01*
X7176312Y1854707D01*
X7189774Y1852422D01*
G37*
G36*
X3117596Y1913788D02*
G01*
X3164890Y1913788D01*
X3161080Y1921408D01*
X3153308Y1932686D01*
X3144164Y1942795D01*
X3133699Y1951634D01*
X3122168Y1959000D01*
X3117596Y1961134D01*
G37*
G36*
X2980893Y1913788D02*
G01*
X3028391Y1913788D01*
X3028391Y1961286D01*
X3017926Y1955495D01*
X3006852Y1947418D01*
X2997047Y1937867D01*
X2988564Y1927148D01*
G37*
G36*
X7920024Y1957120D02*
G01*
X7934553Y1958035D01*
X7948828Y1960727D01*
X7962646Y1965248D01*
X7975803Y1971446D01*
X7988096Y1979218D01*
X7999272Y1988515D01*
X8009280Y1999132D01*
X8017865Y2010918D01*
X8024825Y2023668D01*
X8030159Y2037181D01*
X8033867Y2051304D01*
X8035594Y2065731D01*
X8035594Y2080260D01*
X8033867Y2094687D01*
X8030159Y2108809D01*
X8024825Y2122322D01*
X8017865Y2135073D01*
X8009280Y2146858D01*
X7999272Y2157476D01*
X7988096Y2166772D01*
X7975803Y2174544D01*
X7962646Y2180742D01*
X7948828Y2185263D01*
X7934553Y2187956D01*
X7920024Y2188870D01*
X7905496Y2187956D01*
X7891119Y2185263D01*
X7877302Y2180742D01*
X7864144Y2174544D01*
X7851851Y2166772D01*
X7840624Y2157476D01*
X7830667Y2146858D01*
X7822184Y2135073D01*
X7815122Y2122322D01*
X7809788Y2108809D01*
X7806181Y2094687D01*
X7804353Y2080260D01*
X7804353Y2065731D01*
X7806181Y2051304D01*
X7809788Y2037181D01*
X7815122Y2023668D01*
X7822184Y2010918D01*
X7830667Y1999132D01*
X7840624Y1988515D01*
X7851851Y1979218D01*
X7864144Y1971446D01*
X7877302Y1965248D01*
X7891119Y1960727D01*
X7905496Y1958035D01*
G37*
G36*
X10432694Y1963166D02*
G01*
X10446308Y1963166D01*
X10459770Y1964943D01*
X10472928Y1968550D01*
X10485526Y1973884D01*
X10497210Y1980844D01*
X10507980Y1989277D01*
X10517428Y1999081D01*
X10525556Y2010054D01*
X10532059Y2022043D01*
X10536936Y2034743D01*
X10540187Y2048002D01*
X10541457Y2061616D01*
X10541000Y2075230D01*
X10538815Y2088692D01*
X10534751Y2101697D01*
X10528960Y2114092D01*
X10521696Y2125573D01*
X10512856Y2135987D01*
X10502696Y2145131D01*
X10491470Y2152853D01*
X10479328Y2159000D01*
X10466476Y2163470D01*
X10453116Y2166162D01*
X10439501Y2167077D01*
X10425887Y2166162D01*
X10412526Y2163470D01*
X10399572Y2159000D01*
X10387431Y2152853D01*
X10376204Y2145131D01*
X10366044Y2135987D01*
X10357307Y2125573D01*
X10349941Y2114092D01*
X10344251Y2101697D01*
X10340187Y2088692D01*
X10337901Y2075230D01*
X10337444Y2061616D01*
X10338816Y2048002D01*
X10341965Y2034743D01*
X10346842Y2022043D01*
X10353446Y2010054D01*
X10361472Y1999081D01*
X10371023Y1989277D01*
X10381691Y1980844D01*
X10393476Y1973884D01*
X10405973Y1968550D01*
X10419181Y1964943D01*
G37*
G36*
X3069539Y2020874D02*
G01*
X3083255Y2021332D01*
X3096717Y2023618D01*
X3109772Y2027682D01*
X3122168Y2033422D01*
X3133699Y2040788D01*
X3144164Y2049627D01*
X3153308Y2059736D01*
X3161080Y2071014D01*
X3167278Y2083257D01*
X3171698Y2096160D01*
X3174441Y2109571D01*
X3175355Y2123186D01*
X3174441Y2136851D01*
X3171698Y2150262D01*
X3167278Y2163165D01*
X3161080Y2175408D01*
X3153308Y2186686D01*
X3144164Y2196795D01*
X3133699Y2205634D01*
X3122168Y2213000D01*
X3109772Y2218740D01*
X3096717Y2222804D01*
X3083255Y2225090D01*
X3069539Y2225548D01*
X3055924Y2224176D01*
X3042666Y2221026D01*
X3029864Y2216099D01*
X3017926Y2209495D01*
X3006852Y2201418D01*
X2997047Y2191867D01*
X2988564Y2181148D01*
X2981655Y2169363D01*
X2976321Y2156815D01*
X2972612Y2143607D01*
X2970885Y2130044D01*
X2970885Y2116378D01*
X2972612Y2102815D01*
X2976321Y2089607D01*
X2981655Y2077008D01*
X2988564Y2065274D01*
X2997047Y2054504D01*
X3006852Y2045004D01*
X3017926Y2036927D01*
X3029864Y2030323D01*
X3042666Y2025396D01*
X3055924Y2022246D01*
G37*
G36*
X742391Y2031136D02*
G01*
X742391Y2078583D01*
X694893Y2078583D01*
X695604Y2077008D01*
X702614Y2065274D01*
X711047Y2054504D01*
X720852Y2045004D01*
X731926Y2036927D01*
G37*
G36*
X831596Y2031288D02*
G01*
X836168Y2033422D01*
X847750Y2040788D01*
X858164Y2049627D01*
X867308Y2059736D01*
X875080Y2071014D01*
X878941Y2078583D01*
X831596Y2078583D01*
G37*
G36*
X10178694Y2090166D02*
G01*
X10192308Y2090166D01*
X10205770Y2091943D01*
X10218928Y2095550D01*
X10231526Y2100884D01*
X10243210Y2107844D01*
X10253980Y2116277D01*
X10263428Y2126081D01*
X10271556Y2137054D01*
X10278059Y2149043D01*
X10282936Y2161743D01*
X10286187Y2175002D01*
X10287457Y2188616D01*
X10287000Y2202230D01*
X10284815Y2215692D01*
X10280751Y2228697D01*
X10274960Y2241092D01*
X10267696Y2252573D01*
X10258856Y2262987D01*
X10248696Y2272131D01*
X10237470Y2279853D01*
X10225328Y2286000D01*
X10212476Y2290470D01*
X10199116Y2293162D01*
X10185501Y2294077D01*
X10171887Y2293162D01*
X10158526Y2290470D01*
X10145572Y2286000D01*
X10133431Y2279853D01*
X10122204Y2272131D01*
X10112044Y2262987D01*
X10103307Y2252573D01*
X10095941Y2241092D01*
X10090251Y2228697D01*
X10086187Y2215692D01*
X10083901Y2202230D01*
X10083444Y2188616D01*
X10084816Y2175002D01*
X10087965Y2161743D01*
X10092842Y2149043D01*
X10099446Y2137054D01*
X10107472Y2126081D01*
X10117023Y2116277D01*
X10127691Y2107844D01*
X10139476Y2100884D01*
X10151973Y2095550D01*
X10165181Y2091943D01*
G37*
G36*
X9305493Y2098192D02*
G01*
X9305493Y2145538D01*
X9258147Y2145538D01*
X9258858Y2143963D01*
X9265767Y2132228D01*
X9274251Y2121509D01*
X9284055Y2112060D01*
X9295028Y2103932D01*
G37*
G36*
X9394393Y2098344D02*
G01*
X9399016Y2100478D01*
X9410496Y2107793D01*
X9420910Y2116632D01*
X9430054Y2126742D01*
X9437776Y2137968D01*
X9441637Y2145538D01*
X9394393Y2145538D01*
G37*
G36*
X7244435Y2116226D02*
G01*
X7254900Y2121966D01*
X7265873Y2130044D01*
X7275728Y2139543D01*
X7284110Y2150211D01*
X7291070Y2161946D01*
X7291730Y2163521D01*
X7244435Y2163521D01*
G37*
G36*
X7155535Y2116328D02*
G01*
X7155535Y2163521D01*
X7108342Y2163521D01*
X7112101Y2155952D01*
X7119823Y2144725D01*
X7128967Y2134616D01*
X7139431Y2125827D01*
X7150912Y2118461D01*
G37*
G36*
X831596Y2167788D02*
G01*
X878941Y2167788D01*
X875080Y2175408D01*
X867308Y2186686D01*
X858164Y2196795D01*
X847750Y2205634D01*
X836168Y2213000D01*
X831596Y2215134D01*
G37*
G36*
X694893Y2167788D02*
G01*
X742391Y2167788D01*
X742391Y2215286D01*
X731926Y2209495D01*
X720852Y2201418D01*
X711047Y2191867D01*
X702614Y2181148D01*
X695604Y2169363D01*
G37*
G36*
X10395051Y2227224D02*
G01*
X10395051Y2274570D01*
X10347655Y2274570D01*
X10353446Y2264054D01*
X10361472Y2253081D01*
X10371023Y2243277D01*
X10381691Y2234844D01*
X10393476Y2227884D01*
G37*
G36*
X10483951Y2227224D02*
G01*
X10485526Y2227884D01*
X10497210Y2234844D01*
X10507980Y2243277D01*
X10517428Y2253081D01*
X10525556Y2264054D01*
X10531246Y2274570D01*
X10483951Y2274570D01*
G37*
G36*
X9394393Y2234438D02*
G01*
X9441637Y2234438D01*
X9437776Y2242007D01*
X9430054Y2253284D01*
X9420910Y2263394D01*
X9410496Y2272182D01*
X9399016Y2279497D01*
X9394393Y2281682D01*
G37*
G36*
X9258147Y2234438D02*
G01*
X9305493Y2234438D01*
X9305493Y2281783D01*
X9295028Y2276043D01*
X9284055Y2267966D01*
X9274251Y2258466D01*
X9265767Y2247747D01*
X9258858Y2236063D01*
G37*
G36*
X7108342Y2252421D02*
G01*
X7155535Y2252421D01*
X7155535Y2299665D01*
X7150912Y2297531D01*
X7139431Y2290165D01*
X7128967Y2281377D01*
X7119823Y2271268D01*
X7112101Y2260041D01*
G37*
G36*
X7244435Y2252421D02*
G01*
X7291730Y2252421D01*
X7291070Y2254046D01*
X7284110Y2265781D01*
X7275728Y2276449D01*
X7265873Y2285949D01*
X7254900Y2294026D01*
X7244435Y2299766D01*
G37*
G36*
X8369960Y2256891D02*
G01*
X8383574Y2257806D01*
X8396935Y2260549D01*
X8409787Y2265019D01*
X8422030Y2271166D01*
X8433257Y2278888D01*
X8443315Y2288032D01*
X8452154Y2298446D01*
X8459470Y2309926D01*
X8465210Y2322322D01*
X8469274Y2335326D01*
X8471560Y2348788D01*
X8472017Y2362403D01*
X8470646Y2375966D01*
X8467496Y2389225D01*
X8462619Y2401976D01*
X8456015Y2413914D01*
X8447989Y2424887D01*
X8438438Y2434691D01*
X8427720Y2443175D01*
X8415985Y2450084D01*
X8403437Y2455418D01*
X8390280Y2459024D01*
X8376767Y2460853D01*
X8363153Y2460853D01*
X8349640Y2459024D01*
X8336534Y2455418D01*
X8323935Y2450084D01*
X8312251Y2443175D01*
X8301481Y2434691D01*
X8291982Y2424887D01*
X8283905Y2413914D01*
X8277352Y2401976D01*
X8272475Y2389225D01*
X8269274Y2375966D01*
X8267953Y2362403D01*
X8268360Y2348788D01*
X8270646Y2335326D01*
X8274710Y2322322D01*
X8280501Y2309926D01*
X8287766Y2298446D01*
X8296605Y2288032D01*
X8306714Y2278888D01*
X8317941Y2271166D01*
X8330082Y2265019D01*
X8342985Y2260549D01*
X8356346Y2257806D01*
G37*
G36*
X783539Y2274874D02*
G01*
X797204Y2275332D01*
X810717Y2277618D01*
X823772Y2281682D01*
X836168Y2287422D01*
X847750Y2294788D01*
X858164Y2303627D01*
X867308Y2313736D01*
X875080Y2325014D01*
X881227Y2337257D01*
X885698Y2350160D01*
X888441Y2363571D01*
X889355Y2377186D01*
X888441Y2390851D01*
X885698Y2404262D01*
X881227Y2417165D01*
X875080Y2429408D01*
X867308Y2440686D01*
X858164Y2450795D01*
X847750Y2459634D01*
X836168Y2467000D01*
X823772Y2472740D01*
X810717Y2476804D01*
X797204Y2479090D01*
X783539Y2479548D01*
X769924Y2478176D01*
X756615Y2475026D01*
X743864Y2470099D01*
X731926Y2463495D01*
X720852Y2455418D01*
X711047Y2445867D01*
X702614Y2435148D01*
X695604Y2423363D01*
X690270Y2410815D01*
X686612Y2397607D01*
X684834Y2384044D01*
X684834Y2370378D01*
X686612Y2356815D01*
X690270Y2343607D01*
X695604Y2331008D01*
X702614Y2319274D01*
X711047Y2308504D01*
X720852Y2299004D01*
X731926Y2290927D01*
X743864Y2284323D01*
X756615Y2279396D01*
X769924Y2276246D01*
G37*
G36*
X3069539Y2274874D02*
G01*
X3083255Y2275332D01*
X3096717Y2277618D01*
X3109772Y2281682D01*
X3122168Y2287422D01*
X3133699Y2294788D01*
X3144164Y2303627D01*
X3153308Y2313736D01*
X3161080Y2325014D01*
X3167278Y2337257D01*
X3171698Y2350160D01*
X3174441Y2363571D01*
X3175355Y2377186D01*
X3174441Y2390851D01*
X3171698Y2404262D01*
X3167278Y2417165D01*
X3161080Y2429408D01*
X3153308Y2440686D01*
X3144164Y2450795D01*
X3133699Y2459634D01*
X3122168Y2467000D01*
X3109772Y2472740D01*
X3096717Y2476804D01*
X3083255Y2479090D01*
X3069539Y2479548D01*
X3055924Y2478176D01*
X3042666Y2475026D01*
X3029864Y2470099D01*
X3017926Y2463495D01*
X3006852Y2455418D01*
X2997047Y2445867D01*
X2988564Y2435148D01*
X2981655Y2423363D01*
X2976321Y2410815D01*
X2972612Y2397607D01*
X2970885Y2384044D01*
X2970885Y2370378D01*
X2972612Y2356815D01*
X2976321Y2343607D01*
X2981655Y2331008D01*
X2988564Y2319274D01*
X2997047Y2308504D01*
X3006852Y2299004D01*
X3017926Y2290927D01*
X3029864Y2284323D01*
X3042666Y2279396D01*
X3055924Y2276246D01*
G37*
G36*
X9346539Y2337968D02*
G01*
X9360154Y2338425D01*
X9373616Y2340711D01*
X9386671Y2344724D01*
X9399016Y2350465D01*
X9410496Y2357831D01*
X9420910Y2366619D01*
X9430054Y2376728D01*
X9437776Y2387955D01*
X9443923Y2400147D01*
X9448444Y2413050D01*
X9451187Y2426411D01*
X9452051Y2439974D01*
X9451187Y2453589D01*
X9448444Y2466949D01*
X9443923Y2479852D01*
X9437776Y2492044D01*
X9430054Y2503271D01*
X9420910Y2513380D01*
X9410496Y2522169D01*
X9399016Y2529535D01*
X9386671Y2535275D01*
X9373616Y2539288D01*
X9360154Y2541574D01*
X9346539Y2542032D01*
X9333026Y2540660D01*
X9319717Y2537510D01*
X9306966Y2532583D01*
X9295028Y2526030D01*
X9284055Y2517952D01*
X9274251Y2508453D01*
X9265767Y2497785D01*
X9258858Y2486050D01*
X9253524Y2473502D01*
X9249918Y2460345D01*
X9248089Y2446832D01*
X9248089Y2433167D01*
X9249918Y2419654D01*
X9253524Y2406497D01*
X9258858Y2393950D01*
X9265767Y2382215D01*
X9274251Y2371496D01*
X9284055Y2362047D01*
X9295028Y2353970D01*
X9306966Y2347417D01*
X9319717Y2342489D01*
X9333026Y2339340D01*
G37*
G36*
X10178694Y2344166D02*
G01*
X10192308Y2344166D01*
X10205770Y2345944D01*
X10218928Y2349550D01*
X10231526Y2354884D01*
X10243210Y2361844D01*
X10253980Y2370277D01*
X10263428Y2380081D01*
X10271556Y2391054D01*
X10278059Y2403043D01*
X10282936Y2415743D01*
X10286187Y2429002D01*
X10287457Y2442616D01*
X10287000Y2456230D01*
X10284815Y2469692D01*
X10280751Y2482697D01*
X10274960Y2495092D01*
X10267696Y2506573D01*
X10258856Y2516987D01*
X10248696Y2526131D01*
X10237470Y2533853D01*
X10225328Y2540000D01*
X10212476Y2544470D01*
X10199116Y2547162D01*
X10185501Y2548077D01*
X10171887Y2547162D01*
X10158526Y2544470D01*
X10145572Y2540000D01*
X10133431Y2533853D01*
X10122204Y2526131D01*
X10112044Y2516987D01*
X10103307Y2506573D01*
X10095941Y2495092D01*
X10090251Y2482697D01*
X10086187Y2469692D01*
X10083901Y2456230D01*
X10083444Y2442616D01*
X10084816Y2429002D01*
X10087965Y2415743D01*
X10092842Y2403043D01*
X10099446Y2391054D01*
X10107472Y2380081D01*
X10117023Y2370277D01*
X10127691Y2361844D01*
X10139476Y2354884D01*
X10151973Y2349550D01*
X10165181Y2345944D01*
G37*
G36*
X7203389Y2359964D02*
G01*
X7217003Y2361336D01*
X7230262Y2364486D01*
X7242962Y2369413D01*
X7254900Y2375966D01*
X7265873Y2384044D01*
X7275728Y2393543D01*
X7284110Y2404211D01*
X7291070Y2415946D01*
X7296403Y2428494D01*
X7300010Y2441651D01*
X7301839Y2455164D01*
X7301839Y2468829D01*
X7300010Y2482342D01*
X7296403Y2495499D01*
X7291070Y2508046D01*
X7284110Y2519781D01*
X7275728Y2530449D01*
X7265873Y2539949D01*
X7254900Y2548026D01*
X7242962Y2554579D01*
X7230262Y2559507D01*
X7217003Y2562656D01*
X7203389Y2564028D01*
X7189774Y2563571D01*
X7176312Y2561285D01*
X7163257Y2557272D01*
X7150912Y2551531D01*
X7139431Y2544165D01*
X7128967Y2535377D01*
X7119823Y2525268D01*
X7112101Y2514041D01*
X7105954Y2501849D01*
X7101535Y2488946D01*
X7098842Y2475585D01*
X7097928Y2461971D01*
X7098842Y2448407D01*
X7101535Y2435047D01*
X7105954Y2422144D01*
X7112101Y2409952D01*
X7119823Y2398725D01*
X7128967Y2388616D01*
X7139431Y2379827D01*
X7150912Y2372461D01*
X7163257Y2366721D01*
X7176312Y2362708D01*
X7189774Y2360422D01*
G37*
G36*
X10347858Y2363470D02*
G01*
X10395051Y2363470D01*
X10395051Y2410663D01*
X10387431Y2406853D01*
X10376204Y2399131D01*
X10366044Y2389987D01*
X10357307Y2379573D01*
X10349941Y2368092D01*
G37*
G36*
X10483951Y2363470D02*
G01*
X10531094Y2363470D01*
X10528960Y2368092D01*
X10521696Y2379573D01*
X10512856Y2389987D01*
X10502696Y2399131D01*
X10491470Y2406853D01*
X10483951Y2410663D01*
G37*
G36*
X783539Y2528874D02*
G01*
X797204Y2529332D01*
X810717Y2531618D01*
X823772Y2535682D01*
X836168Y2541422D01*
X847750Y2548788D01*
X858164Y2557627D01*
X867308Y2567736D01*
X875080Y2579014D01*
X881227Y2591257D01*
X885698Y2604160D01*
X888441Y2617571D01*
X889355Y2631186D01*
X888441Y2644851D01*
X885698Y2658262D01*
X881227Y2671165D01*
X875080Y2683408D01*
X867308Y2694686D01*
X858164Y2704795D01*
X847750Y2713634D01*
X836168Y2721000D01*
X823772Y2726740D01*
X810717Y2730804D01*
X797204Y2733090D01*
X783539Y2733548D01*
X769924Y2732176D01*
X756615Y2729026D01*
X743864Y2724099D01*
X731926Y2717495D01*
X720852Y2709418D01*
X711047Y2699867D01*
X702614Y2689148D01*
X695604Y2677363D01*
X690270Y2664815D01*
X686612Y2651607D01*
X684834Y2638044D01*
X684834Y2624378D01*
X686612Y2610815D01*
X690270Y2597607D01*
X695604Y2585008D01*
X702614Y2573274D01*
X711047Y2562504D01*
X720852Y2553004D01*
X731926Y2544927D01*
X743864Y2538323D01*
X756615Y2533396D01*
X769924Y2530246D01*
G37*
G36*
X3028391Y2539136D02*
G01*
X3028391Y2586583D01*
X2980893Y2586583D01*
X2988564Y2573274D01*
X2997047Y2562504D01*
X3006852Y2553004D01*
X3017926Y2544927D01*
G37*
G36*
X3117596Y2539288D02*
G01*
X3122168Y2541422D01*
X3133699Y2548788D01*
X3144164Y2557627D01*
X3153308Y2567736D01*
X3161080Y2579014D01*
X3164890Y2586583D01*
X3117596Y2586583D01*
G37*
G36*
X10119309Y2566009D02*
G01*
X10130739Y2572359D01*
X10144556Y2582113D01*
X10157155Y2593390D01*
X10168483Y2606040D01*
X10178237Y2619806D01*
X10184587Y2631236D01*
X10119309Y2631236D01*
G37*
G36*
X9981590Y2566009D02*
G01*
X9981590Y2631236D01*
X9916414Y2631236D01*
X9922662Y2619806D01*
X9932517Y2606040D01*
X9943744Y2593390D01*
X9956444Y2582113D01*
X9970160Y2572359D01*
G37*
G36*
X3117596Y2675788D02*
G01*
X3164890Y2675788D01*
X3161080Y2683408D01*
X3153308Y2694686D01*
X3144164Y2704795D01*
X3133699Y2713634D01*
X3122168Y2721000D01*
X3117596Y2723134D01*
G37*
G36*
X2980893Y2675788D02*
G01*
X3028391Y2675788D01*
X3028391Y2723286D01*
X3017926Y2717495D01*
X3006852Y2709418D01*
X2997047Y2699867D01*
X2988564Y2689148D01*
G37*
G36*
X7873644Y2740050D02*
G01*
X7873644Y2788666D01*
X7825028Y2788666D01*
X7828280Y2782062D01*
X7836001Y2770530D01*
X7845094Y2760116D01*
X7855508Y2750972D01*
X7867040Y2743301D01*
G37*
G36*
X7966303Y2740050D02*
G01*
X7972958Y2743301D01*
X7984439Y2750972D01*
X7994853Y2760116D01*
X8003946Y2770530D01*
X8011668Y2782062D01*
X8014919Y2788666D01*
X7966303Y2788666D01*
G37*
G36*
X10119309Y2768955D02*
G01*
X10184587Y2768955D01*
X10178237Y2780385D01*
X10168483Y2794203D01*
X10157155Y2806801D01*
X10144556Y2818079D01*
X10130739Y2827883D01*
X10119309Y2834182D01*
G37*
G36*
X9916414Y2768955D02*
G01*
X9981590Y2768955D01*
X9981590Y2834182D01*
X9970160Y2827883D01*
X9956444Y2818079D01*
X9943744Y2806801D01*
X9932517Y2794203D01*
X9922662Y2780385D01*
G37*
G36*
X783539Y2782874D02*
G01*
X797204Y2783332D01*
X810717Y2785618D01*
X823772Y2789682D01*
X836168Y2795422D01*
X847750Y2802788D01*
X858164Y2811627D01*
X867308Y2821736D01*
X875080Y2833014D01*
X881227Y2845257D01*
X885698Y2858160D01*
X888441Y2871571D01*
X889355Y2885186D01*
X888441Y2898851D01*
X885698Y2912262D01*
X881227Y2925165D01*
X875080Y2937408D01*
X867308Y2948686D01*
X858164Y2958795D01*
X847750Y2967634D01*
X836168Y2975000D01*
X823772Y2980740D01*
X810717Y2984804D01*
X797204Y2987090D01*
X783539Y2987548D01*
X769924Y2986176D01*
X756615Y2983026D01*
X743864Y2978099D01*
X731926Y2971495D01*
X720852Y2963418D01*
X711047Y2953867D01*
X702614Y2943148D01*
X695604Y2931363D01*
X690270Y2918815D01*
X686612Y2905607D01*
X684834Y2892044D01*
X684834Y2878378D01*
X686612Y2864815D01*
X690270Y2851607D01*
X695604Y2839008D01*
X702614Y2827274D01*
X711047Y2816504D01*
X720852Y2807004D01*
X731926Y2798927D01*
X743864Y2792323D01*
X756615Y2787396D01*
X769924Y2784246D01*
G37*
G36*
X10432694Y2852166D02*
G01*
X10446308Y2852166D01*
X10459770Y2853944D01*
X10472928Y2857550D01*
X10485526Y2862884D01*
X10497210Y2869844D01*
X10507980Y2878277D01*
X10517428Y2888081D01*
X10525556Y2899054D01*
X10532059Y2911043D01*
X10536936Y2923743D01*
X10540187Y2937002D01*
X10541457Y2950616D01*
X10541000Y2964230D01*
X10538815Y2977692D01*
X10534751Y2990697D01*
X10528960Y3003092D01*
X10521696Y3014573D01*
X10512856Y3024987D01*
X10502696Y3034131D01*
X10491470Y3041853D01*
X10479328Y3048000D01*
X10466476Y3052470D01*
X10453116Y3055162D01*
X10439501Y3056077D01*
X10425887Y3055162D01*
X10412526Y3052470D01*
X10399572Y3048000D01*
X10387431Y3041853D01*
X10376204Y3034131D01*
X10366044Y3024987D01*
X10357307Y3014573D01*
X10349941Y3003092D01*
X10344251Y2990697D01*
X10340187Y2977692D01*
X10337901Y2964230D01*
X10337444Y2950616D01*
X10338816Y2937002D01*
X10341965Y2923743D01*
X10346842Y2911043D01*
X10353446Y2899054D01*
X10361472Y2888081D01*
X10371023Y2878277D01*
X10381691Y2869844D01*
X10393476Y2862884D01*
X10405973Y2857550D01*
X10419181Y2853944D01*
G37*
G36*
X7966303Y2881325D02*
G01*
X8014919Y2881325D01*
X8011668Y2887929D01*
X8003946Y2899460D01*
X7994853Y2909874D01*
X7984439Y2919018D01*
X7972958Y2926689D01*
X7966303Y2929940D01*
G37*
G36*
X7825028Y2881325D02*
G01*
X7873644Y2881325D01*
X7873644Y2929940D01*
X7867040Y2926689D01*
X7855508Y2919018D01*
X7845094Y2909874D01*
X7836001Y2899460D01*
X7828280Y2887929D01*
G37*
G36*
X10178694Y2979166D02*
G01*
X10192308Y2979166D01*
X10205770Y2980944D01*
X10218928Y2984550D01*
X10231526Y2989884D01*
X10243210Y2996844D01*
X10253980Y3005277D01*
X10263428Y3015081D01*
X10271556Y3026054D01*
X10278059Y3038043D01*
X10282936Y3050743D01*
X10286187Y3064002D01*
X10287457Y3077616D01*
X10287000Y3091230D01*
X10284815Y3104692D01*
X10280751Y3117697D01*
X10274960Y3130092D01*
X10267696Y3141573D01*
X10258856Y3151987D01*
X10248696Y3161131D01*
X10237470Y3168853D01*
X10225328Y3175000D01*
X10212476Y3179470D01*
X10199116Y3182162D01*
X10185501Y3183077D01*
X10171887Y3182162D01*
X10158526Y3179470D01*
X10145572Y3175000D01*
X10133431Y3168853D01*
X10122204Y3161131D01*
X10112044Y3151987D01*
X10103307Y3141573D01*
X10095941Y3130092D01*
X10090251Y3117697D01*
X10086187Y3104692D01*
X10083901Y3091230D01*
X10083444Y3077616D01*
X10084816Y3064002D01*
X10087965Y3050743D01*
X10092842Y3038043D01*
X10099446Y3026054D01*
X10107472Y3015081D01*
X10117023Y3005277D01*
X10127691Y2996844D01*
X10139476Y2989884D01*
X10151973Y2984550D01*
X10165181Y2980944D01*
G37*
G36*
X7920024Y2983128D02*
G01*
X7933842Y2983992D01*
X7947355Y2986735D01*
X7960512Y2991154D01*
X7972958Y2997301D01*
X7984439Y3004972D01*
X7994853Y3014116D01*
X8003946Y3024530D01*
X8011668Y3036062D01*
X8017764Y3048457D01*
X8022285Y3061614D01*
X8024926Y3075178D01*
X8025841Y3088995D01*
X8024926Y3102813D01*
X8022285Y3116376D01*
X8017764Y3129534D01*
X8011668Y3141929D01*
X8003946Y3153460D01*
X7994853Y3163874D01*
X7984439Y3173018D01*
X7972958Y3180689D01*
X7960512Y3186836D01*
X7947355Y3191256D01*
X7933842Y3193999D01*
X7920024Y3194862D01*
X7906207Y3193999D01*
X7892592Y3191256D01*
X7879435Y3186836D01*
X7867040Y3180689D01*
X7855508Y3173018D01*
X7845094Y3163874D01*
X7836001Y3153460D01*
X7828280Y3141929D01*
X7822184Y3129534D01*
X7817662Y3116376D01*
X7815021Y3102813D01*
X7814106Y3088995D01*
X7815021Y3075178D01*
X7817662Y3061614D01*
X7822184Y3048457D01*
X7828280Y3036062D01*
X7836001Y3024530D01*
X7845094Y3014116D01*
X7855508Y3004972D01*
X7867040Y2997301D01*
X7879435Y2991154D01*
X7892592Y2986735D01*
X7906207Y2983992D01*
G37*
G36*
X8369960Y3018891D02*
G01*
X8383574Y3019806D01*
X8396935Y3022549D01*
X8409787Y3027019D01*
X8422030Y3033166D01*
X8433257Y3040888D01*
X8443315Y3050032D01*
X8452154Y3060446D01*
X8459470Y3071926D01*
X8465210Y3084322D01*
X8469274Y3097326D01*
X8471560Y3110788D01*
X8472017Y3124403D01*
X8470646Y3137966D01*
X8467496Y3151225D01*
X8462619Y3163976D01*
X8456015Y3175914D01*
X8447989Y3186887D01*
X8438438Y3196691D01*
X8427720Y3205175D01*
X8415985Y3212084D01*
X8403437Y3217418D01*
X8390280Y3221024D01*
X8376767Y3222853D01*
X8363153Y3222853D01*
X8349640Y3221024D01*
X8336534Y3217418D01*
X8323935Y3212084D01*
X8312251Y3205175D01*
X8301481Y3196691D01*
X8291982Y3186887D01*
X8283905Y3175914D01*
X8277352Y3163976D01*
X8272475Y3151225D01*
X8269274Y3137966D01*
X8267953Y3124403D01*
X8268360Y3110788D01*
X8270646Y3097326D01*
X8274710Y3084322D01*
X8280501Y3071926D01*
X8287766Y3060446D01*
X8296605Y3050032D01*
X8306714Y3040888D01*
X8317941Y3033166D01*
X8330082Y3027019D01*
X8342985Y3022549D01*
X8356346Y3019806D01*
G37*
G36*
X783539Y3036874D02*
G01*
X797204Y3037332D01*
X810717Y3039618D01*
X823772Y3043682D01*
X836168Y3049422D01*
X847750Y3056788D01*
X858164Y3065627D01*
X867308Y3075736D01*
X875080Y3087014D01*
X881227Y3099257D01*
X885698Y3112160D01*
X888441Y3125571D01*
X889355Y3139186D01*
X888441Y3152851D01*
X885698Y3166262D01*
X881227Y3179165D01*
X875080Y3191408D01*
X867308Y3202686D01*
X858164Y3212795D01*
X847750Y3221634D01*
X836168Y3229000D01*
X823772Y3234740D01*
X810717Y3238804D01*
X797204Y3241090D01*
X783539Y3241548D01*
X769924Y3240176D01*
X756615Y3237026D01*
X743864Y3232099D01*
X731926Y3225495D01*
X720852Y3217418D01*
X711047Y3207867D01*
X702614Y3197148D01*
X695604Y3185363D01*
X690270Y3172815D01*
X686612Y3159607D01*
X684834Y3146044D01*
X684834Y3132378D01*
X686612Y3118815D01*
X690270Y3105607D01*
X695604Y3093008D01*
X702614Y3081274D01*
X711047Y3070504D01*
X720852Y3061004D01*
X731926Y3052927D01*
X743864Y3046323D01*
X756615Y3041396D01*
X769924Y3038246D01*
G37*
G36*
X3028391Y3047136D02*
G01*
X3028391Y3094583D01*
X2980893Y3094583D01*
X2988564Y3081274D01*
X2997047Y3070504D01*
X3006852Y3061004D01*
X3017926Y3052927D01*
G37*
G36*
X3117596Y3047288D02*
G01*
X3122168Y3049422D01*
X3133699Y3056788D01*
X3144164Y3065627D01*
X3153308Y3075736D01*
X3161080Y3087014D01*
X3164890Y3094583D01*
X3117596Y3094583D01*
G37*
G36*
X10432694Y3106166D02*
G01*
X10446308Y3106166D01*
X10459770Y3107944D01*
X10472928Y3111550D01*
X10485526Y3116884D01*
X10497210Y3123844D01*
X10507980Y3132277D01*
X10517428Y3142081D01*
X10525556Y3153054D01*
X10532059Y3165043D01*
X10536936Y3177743D01*
X10540187Y3191002D01*
X10541457Y3204616D01*
X10541000Y3218230D01*
X10538815Y3231692D01*
X10534751Y3244697D01*
X10528960Y3257092D01*
X10521696Y3268573D01*
X10512856Y3278987D01*
X10502696Y3288131D01*
X10491470Y3295853D01*
X10479328Y3302000D01*
X10466476Y3306470D01*
X10453116Y3309162D01*
X10439501Y3310077D01*
X10425887Y3309162D01*
X10412526Y3306470D01*
X10399572Y3302000D01*
X10387431Y3295853D01*
X10376204Y3288131D01*
X10366044Y3278987D01*
X10357307Y3268573D01*
X10349941Y3257092D01*
X10344251Y3244697D01*
X10340187Y3231692D01*
X10337901Y3218230D01*
X10337444Y3204616D01*
X10338816Y3191002D01*
X10341965Y3177743D01*
X10346842Y3165043D01*
X10353446Y3153054D01*
X10361472Y3142081D01*
X10371023Y3132277D01*
X10381691Y3123844D01*
X10393476Y3116884D01*
X10405973Y3111550D01*
X10419181Y3107944D01*
G37*
G36*
X5369966Y3113633D02*
G01*
X5379770Y3114497D01*
X5389219Y3117037D01*
X5398160Y3121202D01*
X5406237Y3126841D01*
X5413146Y3133750D01*
X5418785Y3141827D01*
X5422900Y3150717D01*
X5425490Y3160217D01*
X5426303Y3169970D01*
X5425490Y3179775D01*
X5422900Y3189274D01*
X5418785Y3198164D01*
X5413146Y3206191D01*
X5406237Y3213150D01*
X5398160Y3218789D01*
X5389219Y3222955D01*
X5379770Y3225495D01*
X5369966Y3226358D01*
X5360162Y3225495D01*
X5350764Y3222955D01*
X5341823Y3218789D01*
X5333187Y3212744D01*
X5330393Y3211372D01*
X5327294Y3210915D01*
X3831183Y3210915D01*
X3827221Y3211677D01*
X3823919Y3213862D01*
X3581857Y3455974D01*
X3579672Y3459276D01*
X3578910Y3464306D01*
X3579672Y3468065D01*
X3581704Y3471316D01*
X3584905Y3473551D01*
X3597249Y3479088D01*
X3610406Y3487064D01*
X3622548Y3496564D01*
X3633419Y3507435D01*
X3642868Y3519576D01*
X3650894Y3532733D01*
X3655771Y3543503D01*
X3657346Y3545789D01*
X3657600Y3548024D01*
X3661765Y3561486D01*
X3664508Y3576624D01*
X3665524Y3591966D01*
X3664508Y3607358D01*
X3661765Y3622497D01*
X3657600Y3635959D01*
X3657346Y3638194D01*
X3655771Y3640480D01*
X3650894Y3651250D01*
X3642868Y3664407D01*
X3633419Y3676548D01*
X3622548Y3687419D01*
X3610406Y3696919D01*
X3597249Y3704894D01*
X3583178Y3711194D01*
X3568496Y3715765D01*
X3553358Y3718560D01*
X3537965Y3719474D01*
X3522573Y3718560D01*
X3507435Y3715765D01*
X3492754Y3711194D01*
X3478784Y3704894D01*
X3465525Y3696919D01*
X3453485Y3687419D01*
X3442563Y3676548D01*
X3433064Y3664407D01*
X3425139Y3651250D01*
X3418789Y3637178D01*
X3414166Y3622497D01*
X3411423Y3607358D01*
X3410508Y3591966D01*
X3411423Y3576624D01*
X3414166Y3561486D01*
X3418789Y3546805D01*
X3425139Y3532733D01*
X3433064Y3519576D01*
X3442563Y3507435D01*
X3453485Y3496564D01*
X3465525Y3487064D01*
X3478784Y3479088D01*
X3491128Y3473551D01*
X3494227Y3471316D01*
X3496360Y3468065D01*
X3497122Y3464306D01*
X3497122Y3442512D01*
X3497935Y3434029D01*
X3500221Y3426358D01*
X3503980Y3419297D01*
X3509416Y3412693D01*
X3780739Y3141421D01*
X3787292Y3136036D01*
X3794353Y3132226D01*
X3801973Y3129940D01*
X3810457Y3129076D01*
X5327294Y3129076D01*
X5330393Y3128619D01*
X5333187Y3127248D01*
X5341823Y3121202D01*
X5350764Y3117037D01*
X5360162Y3114497D01*
G37*
G36*
X3117596Y3183788D02*
G01*
X3164890Y3183788D01*
X3161080Y3191408D01*
X3153308Y3202686D01*
X3144164Y3212795D01*
X3133699Y3221634D01*
X3122168Y3229000D01*
X3117596Y3231134D01*
G37*
G36*
X2980893Y3183788D02*
G01*
X3028391Y3183788D01*
X3028391Y3231286D01*
X3017926Y3225495D01*
X3006852Y3217418D01*
X2997047Y3207867D01*
X2988564Y3197148D01*
G37*
G36*
X10178694Y3233166D02*
G01*
X10192308Y3233166D01*
X10205770Y3234944D01*
X10218928Y3238550D01*
X10231526Y3243884D01*
X10243210Y3250844D01*
X10253980Y3259277D01*
X10263428Y3269081D01*
X10271556Y3280054D01*
X10278059Y3292043D01*
X10282936Y3304743D01*
X10286187Y3318001D01*
X10287457Y3331616D01*
X10287000Y3345230D01*
X10284815Y3358692D01*
X10280751Y3371697D01*
X10274960Y3384092D01*
X10267696Y3395573D01*
X10258856Y3405987D01*
X10248696Y3415131D01*
X10237470Y3422853D01*
X10225328Y3429000D01*
X10212476Y3433470D01*
X10199116Y3436162D01*
X10185501Y3437077D01*
X10171887Y3436162D01*
X10158526Y3433470D01*
X10145572Y3429000D01*
X10133431Y3422853D01*
X10122204Y3415131D01*
X10112044Y3405987D01*
X10103307Y3395573D01*
X10095941Y3384092D01*
X10090251Y3371697D01*
X10086187Y3358692D01*
X10083901Y3345230D01*
X10083444Y3331616D01*
X10084816Y3318001D01*
X10087965Y3304743D01*
X10092842Y3292043D01*
X10099446Y3280054D01*
X10107472Y3269081D01*
X10117023Y3259277D01*
X10127691Y3250844D01*
X10139476Y3243884D01*
X10151973Y3238550D01*
X10165181Y3234944D01*
G37*
G36*
X3069539Y3290874D02*
G01*
X3083255Y3291332D01*
X3096717Y3293618D01*
X3109772Y3297682D01*
X3122168Y3303422D01*
X3133699Y3310788D01*
X3144164Y3319627D01*
X3153308Y3329736D01*
X3161080Y3341014D01*
X3167278Y3353257D01*
X3171698Y3366160D01*
X3174441Y3379571D01*
X3175355Y3393186D01*
X3174441Y3406851D01*
X3171698Y3420262D01*
X3167278Y3433165D01*
X3161080Y3445408D01*
X3153308Y3456686D01*
X3144164Y3466795D01*
X3133699Y3475634D01*
X3122168Y3483000D01*
X3109772Y3488740D01*
X3096717Y3492804D01*
X3083255Y3495090D01*
X3069539Y3495548D01*
X3055924Y3494176D01*
X3042666Y3491026D01*
X3029864Y3486099D01*
X3017926Y3479495D01*
X3006852Y3471418D01*
X2997047Y3461867D01*
X2988564Y3451148D01*
X2981655Y3439363D01*
X2976321Y3426815D01*
X2972612Y3413607D01*
X2970885Y3400044D01*
X2970885Y3386378D01*
X2972612Y3372815D01*
X2976321Y3359607D01*
X2981655Y3347008D01*
X2988564Y3335274D01*
X2997047Y3324504D01*
X3006852Y3315004D01*
X3017926Y3306927D01*
X3029864Y3300323D01*
X3042666Y3295396D01*
X3055924Y3292246D01*
G37*
G36*
X742391Y3301136D02*
G01*
X742391Y3348583D01*
X694893Y3348583D01*
X695604Y3347008D01*
X702614Y3335274D01*
X711047Y3324504D01*
X720852Y3315004D01*
X731926Y3306927D01*
G37*
G36*
X831596Y3301288D02*
G01*
X836168Y3303422D01*
X847750Y3310788D01*
X858164Y3319627D01*
X867308Y3329736D01*
X875080Y3341014D01*
X878941Y3348583D01*
X831596Y3348583D01*
G37*
G36*
X10432694Y3360165D02*
G01*
X10446308Y3360165D01*
X10459770Y3361944D01*
X10472928Y3365550D01*
X10485526Y3370884D01*
X10497210Y3377844D01*
X10507980Y3386277D01*
X10517428Y3396081D01*
X10525556Y3407054D01*
X10532059Y3419043D01*
X10536936Y3431743D01*
X10540187Y3445001D01*
X10541457Y3458616D01*
X10541000Y3472230D01*
X10538815Y3485692D01*
X10534751Y3498697D01*
X10528960Y3511092D01*
X10521696Y3522573D01*
X10512856Y3532987D01*
X10502696Y3542131D01*
X10491470Y3549853D01*
X10479328Y3556000D01*
X10466476Y3560470D01*
X10453116Y3563162D01*
X10439501Y3564077D01*
X10425887Y3563162D01*
X10412526Y3560470D01*
X10399572Y3556000D01*
X10387431Y3549853D01*
X10376204Y3542131D01*
X10366044Y3532987D01*
X10357307Y3522573D01*
X10349941Y3511092D01*
X10344251Y3498697D01*
X10340187Y3485692D01*
X10337901Y3472230D01*
X10337444Y3458616D01*
X10338816Y3445001D01*
X10341965Y3431743D01*
X10346842Y3419043D01*
X10353446Y3407054D01*
X10361472Y3396081D01*
X10371023Y3386277D01*
X10381691Y3377844D01*
X10393476Y3370884D01*
X10405973Y3365550D01*
X10419181Y3361944D01*
G37*
G36*
X831596Y3437788D02*
G01*
X878941Y3437788D01*
X875080Y3445408D01*
X867308Y3456686D01*
X858164Y3466795D01*
X847750Y3475634D01*
X836168Y3483000D01*
X831596Y3485134D01*
G37*
G36*
X694893Y3437788D02*
G01*
X742391Y3437788D01*
X742391Y3485286D01*
X731926Y3479495D01*
X720852Y3471418D01*
X711047Y3461867D01*
X702614Y3451148D01*
X695604Y3439363D01*
G37*
G36*
X4045965Y3464509D02*
G01*
X4061358Y3465423D01*
X4076496Y3468217D01*
X4091178Y3472789D01*
X4105249Y3479088D01*
X4118406Y3487064D01*
X4130548Y3496564D01*
X4141419Y3507435D01*
X4150868Y3519576D01*
X4158894Y3532733D01*
X4163771Y3543503D01*
X4165904Y3546652D01*
X4169206Y3548786D01*
X4172965Y3549497D01*
X4176826Y3548786D01*
X4180027Y3546652D01*
X4182262Y3543503D01*
X4187139Y3532733D01*
X4195064Y3519576D01*
X4204563Y3507435D01*
X4215485Y3496564D01*
X4227525Y3487064D01*
X4240784Y3479088D01*
X4254754Y3472789D01*
X4269435Y3468217D01*
X4284573Y3465423D01*
X4299966Y3464509D01*
X4315358Y3465423D01*
X4330496Y3468217D01*
X4345178Y3472789D01*
X4359249Y3479088D01*
X4372406Y3487064D01*
X4384548Y3496564D01*
X4395419Y3507435D01*
X4404868Y3519576D01*
X4412894Y3532733D01*
X4417771Y3543503D01*
X4419904Y3546652D01*
X4423206Y3548786D01*
X4426966Y3549497D01*
X4430826Y3548786D01*
X4434027Y3546652D01*
X4436262Y3543503D01*
X4441139Y3532733D01*
X4449064Y3519576D01*
X4458563Y3507435D01*
X4469485Y3496564D01*
X4481525Y3487064D01*
X4494784Y3479088D01*
X4508754Y3472789D01*
X4523435Y3468217D01*
X4538573Y3465423D01*
X4553966Y3464509D01*
X4569358Y3465423D01*
X4584496Y3468217D01*
X4599178Y3472789D01*
X4613249Y3479088D01*
X4626406Y3487064D01*
X4638548Y3496564D01*
X4649419Y3507435D01*
X4658868Y3519576D01*
X4666894Y3532733D01*
X4671771Y3543503D01*
X4673904Y3546652D01*
X4677206Y3548786D01*
X4680966Y3549497D01*
X4684826Y3548786D01*
X4688027Y3546652D01*
X4690262Y3543503D01*
X4695139Y3532733D01*
X4703064Y3519576D01*
X4712563Y3507435D01*
X4723485Y3496564D01*
X4735525Y3487064D01*
X4748784Y3479088D01*
X4762754Y3472789D01*
X4777435Y3468217D01*
X4792573Y3465423D01*
X4807966Y3464509D01*
X4823358Y3465423D01*
X4838496Y3468217D01*
X4853178Y3472789D01*
X4867249Y3479088D01*
X4880406Y3487064D01*
X4892548Y3496564D01*
X4903419Y3507435D01*
X4912868Y3519576D01*
X4920894Y3532733D01*
X4927244Y3546805D01*
X4931765Y3561486D01*
X4934508Y3576624D01*
X4935524Y3591966D01*
X4934508Y3607358D01*
X4931765Y3622497D01*
X4927244Y3637178D01*
X4920894Y3651250D01*
X4912868Y3664407D01*
X4903419Y3676548D01*
X4892548Y3687419D01*
X4880406Y3696919D01*
X4867249Y3704894D01*
X4853178Y3711194D01*
X4838496Y3715765D01*
X4823358Y3718560D01*
X4807966Y3719474D01*
X4792573Y3718560D01*
X4777435Y3715765D01*
X4762754Y3711194D01*
X4748784Y3704894D01*
X4735525Y3696919D01*
X4723485Y3687419D01*
X4712563Y3676548D01*
X4703064Y3664407D01*
X4695139Y3651250D01*
X4690262Y3640480D01*
X4688027Y3637330D01*
X4684826Y3635197D01*
X4680966Y3634486D01*
X4677206Y3635197D01*
X4673904Y3637330D01*
X4671771Y3640480D01*
X4666894Y3651250D01*
X4658868Y3664407D01*
X4649419Y3676548D01*
X4638548Y3687419D01*
X4626406Y3696919D01*
X4613249Y3704894D01*
X4599178Y3711194D01*
X4584496Y3715765D01*
X4569358Y3718560D01*
X4553966Y3719474D01*
X4538573Y3718560D01*
X4523435Y3715765D01*
X4508754Y3711194D01*
X4494784Y3704894D01*
X4481525Y3696919D01*
X4469485Y3687419D01*
X4458563Y3676548D01*
X4449064Y3664407D01*
X4441139Y3651250D01*
X4436262Y3640480D01*
X4434027Y3637330D01*
X4430826Y3635197D01*
X4426966Y3634486D01*
X4423206Y3635197D01*
X4419904Y3637330D01*
X4417771Y3640480D01*
X4412894Y3651250D01*
X4404868Y3664407D01*
X4395419Y3676548D01*
X4384548Y3687419D01*
X4372406Y3696919D01*
X4359249Y3704894D01*
X4346905Y3710432D01*
X4343704Y3712667D01*
X4341672Y3715918D01*
X4340910Y3719677D01*
X4340910Y3849471D01*
X4340098Y3857955D01*
X4337710Y3865626D01*
X4333951Y3872687D01*
X4328515Y3879291D01*
X4161942Y4045864D01*
X4160469Y4047845D01*
X4159453Y4050131D01*
X4157776Y4055618D01*
X4153915Y4062679D01*
X4148836Y4068876D01*
X4142689Y4073956D01*
X4135577Y4077715D01*
X4127957Y4080052D01*
X4119473Y4080916D01*
X3660444Y4080916D01*
X3652012Y4080052D01*
X3644341Y4077715D01*
X3637279Y4073956D01*
X3630726Y4068572D01*
X3253232Y3691077D01*
X3249930Y3688892D01*
X3246069Y3688130D01*
X3173069Y3688130D01*
X3169412Y3688791D01*
X3166262Y3690721D01*
X3163976Y3693718D01*
X3161080Y3699408D01*
X3153308Y3710686D01*
X3144164Y3720795D01*
X3133699Y3729634D01*
X3122168Y3737000D01*
X3109772Y3742740D01*
X3096717Y3746804D01*
X3083255Y3749090D01*
X3069539Y3749548D01*
X3055924Y3748176D01*
X3042666Y3745026D01*
X3029864Y3740099D01*
X3017926Y3733495D01*
X3006852Y3725418D01*
X2997047Y3715867D01*
X2988564Y3705148D01*
X2981655Y3693363D01*
X2976321Y3680815D01*
X2972612Y3667607D01*
X2970885Y3654044D01*
X2970885Y3640378D01*
X2972612Y3626815D01*
X2976321Y3613607D01*
X2981655Y3601008D01*
X2988564Y3589274D01*
X2997047Y3578504D01*
X3006852Y3569004D01*
X3017926Y3560927D01*
X3029864Y3554323D01*
X3042666Y3549396D01*
X3055924Y3546246D01*
X3069539Y3544874D01*
X3083255Y3545332D01*
X3096717Y3547618D01*
X3109772Y3551682D01*
X3122168Y3557422D01*
X3133699Y3564788D01*
X3144164Y3573627D01*
X3153308Y3583736D01*
X3161080Y3595014D01*
X3163976Y3600704D01*
X3166262Y3603701D01*
X3169412Y3605631D01*
X3173069Y3606292D01*
X3266694Y3606292D01*
X3275228Y3607155D01*
X3282797Y3609441D01*
X3289960Y3613251D01*
X3296462Y3618636D01*
X3673957Y3996131D01*
X3677208Y3998315D01*
X3681171Y3999077D01*
X4088790Y3999077D01*
X4092701Y3998315D01*
X4096004Y3996131D01*
X4256074Y3836009D01*
X4258360Y3832707D01*
X4259122Y3828846D01*
X4259122Y3719677D01*
X4258360Y3715918D01*
X4256227Y3712667D01*
X4253128Y3710432D01*
X4240784Y3704894D01*
X4227525Y3696919D01*
X4215485Y3687419D01*
X4204563Y3676548D01*
X4195064Y3664407D01*
X4187139Y3651250D01*
X4182262Y3640480D01*
X4180027Y3637330D01*
X4176826Y3635197D01*
X4172965Y3634486D01*
X4169206Y3635197D01*
X4165904Y3637330D01*
X4163771Y3640480D01*
X4158894Y3651250D01*
X4150868Y3664407D01*
X4141419Y3676548D01*
X4130548Y3687419D01*
X4118406Y3696919D01*
X4105249Y3704894D01*
X4091178Y3711194D01*
X4076496Y3715765D01*
X4061358Y3718560D01*
X4045965Y3719474D01*
X4030573Y3718560D01*
X4015435Y3715765D01*
X4000754Y3711194D01*
X3986784Y3704894D01*
X3973525Y3696919D01*
X3961485Y3687419D01*
X3950563Y3676548D01*
X3941064Y3664407D01*
X3933139Y3651250D01*
X3928262Y3640480D01*
X3926687Y3638194D01*
X3926433Y3635959D01*
X3922166Y3622497D01*
X3919423Y3607358D01*
X3918508Y3591966D01*
X3919423Y3576624D01*
X3922166Y3561486D01*
X3926433Y3548024D01*
X3926687Y3545789D01*
X3928262Y3543503D01*
X3933139Y3532733D01*
X3941064Y3519576D01*
X3950563Y3507435D01*
X3961485Y3496564D01*
X3973525Y3487064D01*
X3986784Y3479088D01*
X4000754Y3472789D01*
X4015435Y3468217D01*
X4030573Y3465423D01*
G37*
G36*
X3849115Y3478174D02*
G01*
X3851249Y3479088D01*
X3864406Y3487064D01*
X3876548Y3496564D01*
X3887419Y3507435D01*
X3896868Y3519576D01*
X3904894Y3532733D01*
X3905808Y3534816D01*
X3849115Y3534816D01*
G37*
G36*
X3734815Y3478174D02*
G01*
X3734815Y3534816D01*
X3678123Y3534816D01*
X3679139Y3532733D01*
X3687064Y3519576D01*
X3696563Y3507435D01*
X3707485Y3496564D01*
X3719525Y3487064D01*
X3732784Y3479088D01*
G37*
G36*
X10178694Y3487165D02*
G01*
X10192308Y3487165D01*
X10205770Y3488944D01*
X10218928Y3492550D01*
X10231526Y3497884D01*
X10243210Y3504844D01*
X10253980Y3513277D01*
X10263428Y3523081D01*
X10271556Y3534054D01*
X10278059Y3546043D01*
X10282936Y3558743D01*
X10286187Y3572001D01*
X10287457Y3585616D01*
X10287000Y3599230D01*
X10284815Y3612692D01*
X10280751Y3625697D01*
X10274960Y3638092D01*
X10267696Y3649573D01*
X10258856Y3659987D01*
X10248696Y3669131D01*
X10237470Y3676853D01*
X10225328Y3683000D01*
X10212476Y3687470D01*
X10199116Y3690162D01*
X10185501Y3691077D01*
X10171887Y3690162D01*
X10158526Y3687470D01*
X10145572Y3683000D01*
X10133431Y3676853D01*
X10122204Y3669131D01*
X10112044Y3659987D01*
X10103307Y3649573D01*
X10095941Y3638092D01*
X10090251Y3625697D01*
X10086187Y3612692D01*
X10083901Y3599230D01*
X10083444Y3585616D01*
X10084816Y3572001D01*
X10087965Y3558743D01*
X10092842Y3546043D01*
X10099446Y3534054D01*
X10107472Y3523081D01*
X10117023Y3513277D01*
X10127691Y3504844D01*
X10139476Y3497884D01*
X10151973Y3492550D01*
X10165181Y3488944D01*
G37*
G36*
X783539Y3544874D02*
G01*
X797204Y3545332D01*
X810717Y3547618D01*
X823772Y3551682D01*
X836168Y3557422D01*
X847750Y3564788D01*
X858164Y3573627D01*
X867308Y3583736D01*
X875080Y3595014D01*
X881227Y3607257D01*
X885698Y3620160D01*
X888441Y3633571D01*
X889355Y3647186D01*
X888441Y3660851D01*
X885698Y3674262D01*
X881227Y3687165D01*
X875080Y3699408D01*
X867308Y3710686D01*
X858164Y3720795D01*
X847750Y3729634D01*
X836168Y3737000D01*
X823772Y3742740D01*
X810717Y3746804D01*
X797204Y3749090D01*
X783539Y3749548D01*
X769924Y3748176D01*
X756615Y3745026D01*
X743864Y3740099D01*
X731926Y3733495D01*
X720852Y3725418D01*
X711047Y3715867D01*
X702614Y3705148D01*
X695604Y3693363D01*
X690270Y3680815D01*
X686612Y3667607D01*
X684834Y3654044D01*
X684834Y3640378D01*
X686612Y3626815D01*
X690270Y3613607D01*
X695604Y3601008D01*
X702614Y3589274D01*
X711047Y3578504D01*
X720852Y3569004D01*
X731926Y3560927D01*
X743864Y3554323D01*
X756615Y3549396D01*
X769924Y3546246D01*
G37*
G36*
X10395051Y3624224D02*
G01*
X10395051Y3671570D01*
X10347655Y3671570D01*
X10353446Y3661054D01*
X10361472Y3650081D01*
X10371023Y3640277D01*
X10381691Y3631844D01*
X10393476Y3624884D01*
G37*
G36*
X10483951Y3624224D02*
G01*
X10485526Y3624884D01*
X10497210Y3631844D01*
X10507980Y3640277D01*
X10517428Y3650081D01*
X10525556Y3661054D01*
X10531246Y3671570D01*
X10483951Y3671570D01*
G37*
G36*
X3678123Y3649116D02*
G01*
X3734815Y3649116D01*
X3734815Y3705809D01*
X3732784Y3704894D01*
X3719525Y3696919D01*
X3707485Y3687419D01*
X3696563Y3676548D01*
X3687064Y3664407D01*
X3679139Y3651250D01*
G37*
G36*
X3849115Y3649116D02*
G01*
X3905808Y3649116D01*
X3904894Y3651250D01*
X3896868Y3664407D01*
X3887419Y3676548D01*
X3876548Y3687419D01*
X3864406Y3696919D01*
X3851249Y3704894D01*
X3849115Y3705809D01*
G37*
G36*
X5481624Y3687978D02*
G01*
X5495239Y3688435D01*
X5508650Y3690670D01*
X5521655Y3694734D01*
X5533999Y3700475D01*
X5545582Y3707790D01*
X5555996Y3716629D01*
X5565089Y3726738D01*
X5572810Y3737965D01*
X5578957Y3750157D01*
X5583428Y3763010D01*
X5586171Y3776370D01*
X5587085Y3789984D01*
X5586171Y3803599D01*
X5583428Y3816959D01*
X5578957Y3829862D01*
X5572810Y3842004D01*
X5565089Y3853281D01*
X5555996Y3863390D01*
X5545582Y3872179D01*
X5533999Y3879494D01*
X5521655Y3885234D01*
X5508650Y3889298D01*
X5495239Y3891584D01*
X5481624Y3892042D01*
X5468010Y3890670D01*
X5454091Y3887266D01*
X5450332Y3886555D01*
X5446471Y3887368D01*
X5443270Y3889552D01*
X5034280Y4298543D01*
X5027726Y4303979D01*
X5020564Y4307738D01*
X5012944Y4310075D01*
X5004460Y4310888D01*
X3743299Y4310888D01*
X3739438Y4311650D01*
X3736086Y4313885D01*
X3733901Y4317187D01*
X3733088Y4321048D01*
X3733901Y4324959D01*
X3736086Y4328261D01*
X3953916Y4546092D01*
X3957269Y4548327D01*
X3961129Y4549089D01*
X5385003Y4549089D01*
X5388457Y4548479D01*
X5391505Y4546752D01*
X5393740Y4544110D01*
X5400802Y4532223D01*
X5409285Y4521504D01*
X5419039Y4512056D01*
X5430012Y4503928D01*
X5442051Y4497374D01*
X5454751Y4492498D01*
X5468010Y4489348D01*
X5481624Y4487976D01*
X5495239Y4488434D01*
X5508650Y4490669D01*
X5521655Y4494733D01*
X5533999Y4500473D01*
X5545582Y4507788D01*
X5555996Y4516628D01*
X5565089Y4526737D01*
X5572810Y4537964D01*
X5578957Y4550156D01*
X5583428Y4563008D01*
X5586171Y4576368D01*
X5587085Y4589983D01*
X5586171Y4603597D01*
X5583428Y4616958D01*
X5578957Y4629861D01*
X5572810Y4642002D01*
X5565089Y4653280D01*
X5555996Y4663389D01*
X5545582Y4672177D01*
X5533999Y4679492D01*
X5521655Y4685233D01*
X5508650Y4689297D01*
X5495239Y4691583D01*
X5481624Y4692040D01*
X5468010Y4690668D01*
X5454751Y4687468D01*
X5442051Y4682591D01*
X5430012Y4676038D01*
X5419039Y4667961D01*
X5409285Y4658461D01*
X5400802Y4647742D01*
X5393740Y4635855D01*
X5391505Y4633214D01*
X5388457Y4631486D01*
X5385003Y4630877D01*
X3940505Y4630877D01*
X3931970Y4630064D01*
X3924401Y4627727D01*
X3917289Y4623968D01*
X3910685Y4618583D01*
X3491229Y4199077D01*
X3487928Y4196892D01*
X3484016Y4196130D01*
X3173069Y4196130D01*
X3169412Y4196791D01*
X3166262Y4198721D01*
X3163976Y4201718D01*
X3161080Y4207408D01*
X3153308Y4218686D01*
X3144164Y4228795D01*
X3133699Y4237634D01*
X3122168Y4245000D01*
X3109772Y4250740D01*
X3096717Y4254804D01*
X3083255Y4257090D01*
X3069539Y4257548D01*
X3055924Y4256176D01*
X3042666Y4253026D01*
X3029864Y4248099D01*
X3017926Y4241495D01*
X3006852Y4233418D01*
X2997047Y4223867D01*
X2988564Y4213148D01*
X2981655Y4201363D01*
X2976321Y4188815D01*
X2972612Y4175607D01*
X2970885Y4162044D01*
X2970885Y4148378D01*
X2972612Y4134815D01*
X2976321Y4121607D01*
X2981655Y4109008D01*
X2988564Y4097274D01*
X2997047Y4086504D01*
X3006852Y4077004D01*
X3017926Y4068927D01*
X3029864Y4062323D01*
X3042666Y4057396D01*
X3055924Y4054246D01*
X3069539Y4052874D01*
X3083255Y4053332D01*
X3096717Y4055618D01*
X3109772Y4059682D01*
X3122168Y4065422D01*
X3133699Y4072788D01*
X3144164Y4081627D01*
X3153308Y4091736D01*
X3161080Y4103014D01*
X3163976Y4108704D01*
X3166262Y4111701D01*
X3169412Y4113631D01*
X3173069Y4114292D01*
X3501898Y4114292D01*
X3505758Y4113529D01*
X3509060Y4111345D01*
X3511296Y4108043D01*
X3512108Y4104132D01*
X3511296Y4100271D01*
X3509060Y4096969D01*
X3357219Y3945077D01*
X3353917Y3942892D01*
X3350056Y3942130D01*
X3173069Y3942130D01*
X3169412Y3942791D01*
X3166262Y3944721D01*
X3163976Y3947718D01*
X3161080Y3953408D01*
X3153308Y3964686D01*
X3144164Y3974795D01*
X3133699Y3983634D01*
X3122168Y3991000D01*
X3109772Y3996740D01*
X3096717Y4000804D01*
X3083255Y4003090D01*
X3069539Y4003548D01*
X3055924Y4002176D01*
X3042666Y3999026D01*
X3029864Y3994099D01*
X3017926Y3987495D01*
X3006852Y3979418D01*
X2997047Y3969867D01*
X2988564Y3959148D01*
X2981655Y3947363D01*
X2976321Y3934815D01*
X2972612Y3921607D01*
X2970885Y3908044D01*
X2970885Y3894378D01*
X2972612Y3880815D01*
X2976321Y3867607D01*
X2981655Y3855008D01*
X2988564Y3843274D01*
X2997047Y3832504D01*
X3006852Y3823004D01*
X3017926Y3814927D01*
X3029864Y3808323D01*
X3042666Y3803396D01*
X3055924Y3800246D01*
X3069539Y3798874D01*
X3083255Y3799332D01*
X3096717Y3801618D01*
X3109772Y3805682D01*
X3122168Y3811422D01*
X3133699Y3818788D01*
X3144164Y3827627D01*
X3153308Y3837736D01*
X3161080Y3849014D01*
X3163976Y3854704D01*
X3166262Y3857701D01*
X3169412Y3859631D01*
X3173069Y3860292D01*
X3370681Y3860292D01*
X3379215Y3861155D01*
X3386836Y3863441D01*
X3393948Y3867251D01*
X3400450Y3872636D01*
X3753967Y4226102D01*
X3757269Y4228287D01*
X3761130Y4229100D01*
X4983835Y4229100D01*
X4987696Y4228287D01*
X4990998Y4226102D01*
X5385460Y3831640D01*
X5387492Y3828745D01*
X5388406Y3825290D01*
X5388051Y3821785D01*
X5384901Y3810304D01*
X5383123Y3796792D01*
X5383123Y3783177D01*
X5384901Y3769664D01*
X5388508Y3756507D01*
X5393842Y3743960D01*
X5400802Y3732225D01*
X5409285Y3721506D01*
X5419039Y3712057D01*
X5430012Y3703929D01*
X5442051Y3697376D01*
X5454751Y3692499D01*
X5468010Y3689350D01*
G37*
G36*
X6470497Y3698189D02*
G01*
X6470497Y3745534D01*
X6423152Y3745534D01*
X6430822Y3732225D01*
X6439255Y3721506D01*
X6449110Y3712057D01*
X6460083Y3703929D01*
G37*
G36*
X6559397Y3698341D02*
G01*
X6564071Y3700475D01*
X6575501Y3707790D01*
X6585966Y3716629D01*
X6595059Y3726738D01*
X6602780Y3737965D01*
X6606692Y3745534D01*
X6559397Y3745534D01*
G37*
G36*
X10178694Y3741165D02*
G01*
X10192308Y3741165D01*
X10205770Y3742944D01*
X10218928Y3746550D01*
X10231526Y3751884D01*
X10243210Y3758844D01*
X10253980Y3767277D01*
X10263428Y3777081D01*
X10271556Y3788054D01*
X10278059Y3800043D01*
X10282936Y3812743D01*
X10286187Y3826001D01*
X10287457Y3839616D01*
X10287000Y3853230D01*
X10284815Y3866692D01*
X10280751Y3879697D01*
X10274960Y3892092D01*
X10267696Y3903573D01*
X10258856Y3913987D01*
X10248696Y3923131D01*
X10237470Y3930853D01*
X10225328Y3937000D01*
X10212476Y3941470D01*
X10199116Y3944162D01*
X10185501Y3945077D01*
X10171887Y3944162D01*
X10158526Y3941470D01*
X10145572Y3937000D01*
X10133431Y3930853D01*
X10122204Y3923131D01*
X10112044Y3913987D01*
X10103307Y3903573D01*
X10095941Y3892092D01*
X10090251Y3879697D01*
X10086187Y3866692D01*
X10083901Y3853230D01*
X10083444Y3839616D01*
X10084816Y3826001D01*
X10087965Y3812743D01*
X10092842Y3800043D01*
X10099446Y3788054D01*
X10107472Y3777081D01*
X10117023Y3767277D01*
X10127691Y3758844D01*
X10139476Y3751884D01*
X10151973Y3746550D01*
X10165181Y3742944D01*
G37*
G36*
X9387332Y3744874D02*
G01*
X9394850Y3748684D01*
X9406077Y3756406D01*
X9416237Y3765550D01*
X9425076Y3775964D01*
X9432340Y3787444D01*
X9434474Y3792067D01*
X9387332Y3792067D01*
G37*
G36*
X9298432Y3744874D02*
G01*
X9298432Y3792067D01*
X9251238Y3792067D01*
X9253321Y3787444D01*
X9260687Y3775964D01*
X9269425Y3765550D01*
X9279585Y3756406D01*
X9290812Y3748684D01*
G37*
G36*
X10347858Y3760470D02*
G01*
X10395051Y3760470D01*
X10395051Y3807663D01*
X10387431Y3803853D01*
X10376204Y3796131D01*
X10366044Y3786987D01*
X10357307Y3776573D01*
X10349941Y3765092D01*
G37*
G36*
X10483951Y3760470D02*
G01*
X10531094Y3760470D01*
X10528960Y3765092D01*
X10521696Y3776573D01*
X10512856Y3786987D01*
X10502696Y3796131D01*
X10491470Y3803853D01*
X10483951Y3807663D01*
G37*
G36*
X11069777Y3781653D02*
G01*
X11088573Y3782161D01*
X11107166Y3784498D01*
X11125454Y3788664D01*
X11143335Y3794658D01*
X11160455Y3802379D01*
X11176660Y3811727D01*
X11191900Y3822700D01*
X11206022Y3835146D01*
X11218773Y3848912D01*
X11230102Y3863898D01*
X11239957Y3879900D01*
X11248085Y3896817D01*
X11254486Y3914495D01*
X11259108Y3932682D01*
X11261953Y3951224D01*
X11262868Y3970020D01*
X11261953Y3988765D01*
X11259108Y4007358D01*
X11254486Y4025544D01*
X11248085Y4043172D01*
X11239957Y4060088D01*
X11230102Y4076141D01*
X11218773Y4091127D01*
X11206022Y4104894D01*
X11191900Y4117289D01*
X11176660Y4128262D01*
X11160455Y4137660D01*
X11143335Y4145381D01*
X11125454Y4151376D01*
X11107166Y4155541D01*
X11088573Y4157878D01*
X11069777Y4158335D01*
X11051032Y4156964D01*
X11032540Y4153662D01*
X11014506Y4148582D01*
X10997031Y4141724D01*
X10980267Y4133138D01*
X10964519Y4122978D01*
X10949787Y4111244D01*
X10936376Y4098137D01*
X10924286Y4083761D01*
X10913719Y4068267D01*
X10904728Y4051757D01*
X10897412Y4034434D01*
X10891926Y4016501D01*
X10888167Y3998061D01*
X10886287Y3979418D01*
X10886287Y3960622D01*
X10888167Y3941927D01*
X10891926Y3923537D01*
X10897412Y3905554D01*
X10904728Y3888282D01*
X10913719Y3871772D01*
X10924286Y3856278D01*
X10936376Y3841851D01*
X10949787Y3828745D01*
X10964519Y3817061D01*
X10980267Y3806850D01*
X10997031Y3798265D01*
X11014506Y3791407D01*
X11032540Y3786327D01*
X11051032Y3783076D01*
G37*
G36*
X783539Y3798874D02*
G01*
X797204Y3799332D01*
X810717Y3801618D01*
X823772Y3805682D01*
X836168Y3811422D01*
X847750Y3818788D01*
X858164Y3827627D01*
X867308Y3837736D01*
X875080Y3849014D01*
X881227Y3861257D01*
X885698Y3874160D01*
X888441Y3887571D01*
X889355Y3901186D01*
X888441Y3914851D01*
X885698Y3928262D01*
X881227Y3941165D01*
X875080Y3953408D01*
X867308Y3964686D01*
X858164Y3974795D01*
X847750Y3983634D01*
X836168Y3991000D01*
X823772Y3996740D01*
X810717Y4000804D01*
X797204Y4003090D01*
X783539Y4003548D01*
X769924Y4002176D01*
X756615Y3999026D01*
X743864Y3994099D01*
X731926Y3987495D01*
X720852Y3979418D01*
X711047Y3969867D01*
X702614Y3959148D01*
X695604Y3947363D01*
X690270Y3934815D01*
X686612Y3921607D01*
X684834Y3908044D01*
X684834Y3894378D01*
X686612Y3880815D01*
X690270Y3867607D01*
X695604Y3855008D01*
X702614Y3843274D01*
X711047Y3832504D01*
X720852Y3823004D01*
X731926Y3814927D01*
X743864Y3808323D01*
X756615Y3803396D01*
X769924Y3800246D01*
G37*
G36*
X6559397Y3834434D02*
G01*
X6606692Y3834434D01*
X6602780Y3842004D01*
X6595059Y3853281D01*
X6585966Y3863390D01*
X6575501Y3872179D01*
X6564071Y3879494D01*
X6559397Y3881678D01*
G37*
G36*
X6423152Y3834434D02*
G01*
X6470497Y3834434D01*
X6470497Y3881780D01*
X6460083Y3876040D01*
X6449110Y3867962D01*
X6439255Y3858463D01*
X6430822Y3847744D01*
G37*
G36*
X9387332Y3880967D02*
G01*
X9434626Y3880967D01*
X9428937Y3891432D01*
X9420809Y3902405D01*
X9411360Y3912209D01*
X9400590Y3920693D01*
X9388906Y3927652D01*
X9387332Y3928313D01*
G37*
G36*
X9251035Y3880967D02*
G01*
X9298432Y3880967D01*
X9298432Y3928313D01*
X9296857Y3927652D01*
X9285071Y3920693D01*
X9274403Y3912209D01*
X9264853Y3902405D01*
X9256826Y3891432D01*
G37*
G36*
X9342882Y3988409D02*
G01*
X9356496Y3989324D01*
X9369856Y3992067D01*
X9382709Y3996537D01*
X9394850Y4002684D01*
X9406077Y4010406D01*
X9416237Y4019550D01*
X9425076Y4029964D01*
X9432340Y4041444D01*
X9438132Y4053840D01*
X9442196Y4066844D01*
X9444380Y4080306D01*
X9444837Y4093921D01*
X9443567Y4107484D01*
X9440316Y4120743D01*
X9435439Y4133494D01*
X9428937Y4145432D01*
X9420809Y4156405D01*
X9411360Y4166209D01*
X9400590Y4174693D01*
X9388906Y4181652D01*
X9376308Y4186936D01*
X9363151Y4190542D01*
X9349689Y4192371D01*
X9336074Y4192371D01*
X9322562Y4190542D01*
X9309354Y4186936D01*
X9296857Y4181652D01*
X9285071Y4174693D01*
X9274403Y4166209D01*
X9264853Y4156405D01*
X9256826Y4145432D01*
X9250222Y4133494D01*
X9245346Y4120743D01*
X9242196Y4107484D01*
X9240824Y4093921D01*
X9241282Y4080306D01*
X9243517Y4066844D01*
X9247632Y4053840D01*
X9253321Y4041444D01*
X9260687Y4029964D01*
X9269425Y4019550D01*
X9279585Y4010406D01*
X9290812Y4002684D01*
X9302953Y3996537D01*
X9315907Y3992067D01*
X9329267Y3989324D01*
G37*
G36*
X783539Y4052874D02*
G01*
X797204Y4053332D01*
X810717Y4055618D01*
X823772Y4059682D01*
X836168Y4065422D01*
X847750Y4072788D01*
X858164Y4081627D01*
X867308Y4091736D01*
X875080Y4103014D01*
X881227Y4115257D01*
X885698Y4128160D01*
X888441Y4141571D01*
X889355Y4155186D01*
X888441Y4168851D01*
X885698Y4182262D01*
X881227Y4195165D01*
X875080Y4207408D01*
X867308Y4218686D01*
X858164Y4228795D01*
X847750Y4237634D01*
X836168Y4245000D01*
X823772Y4250740D01*
X810717Y4254804D01*
X797204Y4257090D01*
X783539Y4257548D01*
X769924Y4256176D01*
X756615Y4253026D01*
X743864Y4248099D01*
X731926Y4241495D01*
X720852Y4233418D01*
X711047Y4223867D01*
X702614Y4213148D01*
X695604Y4201363D01*
X690270Y4188815D01*
X686612Y4175607D01*
X684834Y4162044D01*
X684834Y4148378D01*
X686612Y4134815D01*
X690270Y4121607D01*
X695604Y4109008D01*
X702614Y4097274D01*
X711047Y4086504D01*
X720852Y4077004D01*
X731926Y4068927D01*
X743864Y4062323D01*
X756615Y4057396D01*
X769924Y4054246D01*
G37*
G36*
X5488432Y4087977D02*
G01*
X5501944Y4089349D01*
X5515203Y4092498D01*
X5528005Y4097375D01*
X5539892Y4103928D01*
X5550916Y4112056D01*
X5560669Y4121505D01*
X5569153Y4132224D01*
X5576062Y4143959D01*
X5581396Y4156506D01*
X5585053Y4169664D01*
X5586831Y4183176D01*
X5586831Y4196791D01*
X5585053Y4210304D01*
X5581396Y4223461D01*
X5576062Y4236008D01*
X5569153Y4247743D01*
X5560669Y4258462D01*
X5550916Y4267962D01*
X5539892Y4276039D01*
X5528005Y4282592D01*
X5515203Y4287469D01*
X5501944Y4290669D01*
X5488432Y4292041D01*
X5474817Y4291584D01*
X5461304Y4289298D01*
X5448300Y4285234D01*
X5435904Y4279493D01*
X5424474Y4272178D01*
X5414060Y4263390D01*
X5404866Y4253280D01*
X5397144Y4242003D01*
X5390997Y4229862D01*
X5386527Y4216958D01*
X5383784Y4203598D01*
X5382869Y4189984D01*
X5383784Y4176369D01*
X5386527Y4163009D01*
X5390997Y4150156D01*
X5397144Y4137964D01*
X5404866Y4126737D01*
X5414060Y4116628D01*
X5424474Y4107789D01*
X5435904Y4100474D01*
X5448300Y4094734D01*
X5461304Y4090670D01*
X5474817Y4088434D01*
G37*
G36*
X6518351Y4087977D02*
G01*
X6531965Y4089349D01*
X6545224Y4092498D01*
X6557924Y4097375D01*
X6569964Y4103928D01*
X6580886Y4112056D01*
X6590690Y4121505D01*
X6599123Y4132224D01*
X6606133Y4143959D01*
X6611467Y4156506D01*
X6615023Y4169664D01*
X6616801Y4183176D01*
X6616801Y4196791D01*
X6615023Y4210304D01*
X6611467Y4223461D01*
X6606133Y4236008D01*
X6599123Y4247743D01*
X6590690Y4258462D01*
X6580886Y4267962D01*
X6569964Y4276039D01*
X6557924Y4282592D01*
X6545224Y4287469D01*
X6531965Y4290669D01*
X6518351Y4292041D01*
X6504787Y4291584D01*
X6491274Y4289298D01*
X6478270Y4285234D01*
X6465976Y4279493D01*
X6454394Y4272178D01*
X6443980Y4263390D01*
X6434836Y4253280D01*
X6427114Y4242003D01*
X6420967Y4229862D01*
X6416548Y4216958D01*
X6413804Y4203598D01*
X6412890Y4189984D01*
X6413804Y4176369D01*
X6416548Y4163009D01*
X6420967Y4150156D01*
X6427114Y4137964D01*
X6434836Y4126737D01*
X6443980Y4116628D01*
X6454394Y4107789D01*
X6465976Y4100474D01*
X6478270Y4094734D01*
X6491274Y4090670D01*
X6504787Y4088434D01*
G37*
G36*
X11480596Y4109415D02*
G01*
X11480596Y4174642D01*
X11415369Y4174642D01*
X11421719Y4163212D01*
X11431473Y4149394D01*
X11442801Y4136796D01*
X11455400Y4125518D01*
X11469217Y4115714D01*
G37*
G36*
X11618315Y4109415D02*
G01*
X11629796Y4115714D01*
X11643512Y4125518D01*
X11656212Y4136796D01*
X11667439Y4149394D01*
X11677294Y4163212D01*
X11683542Y4174642D01*
X11618315Y4174642D01*
G37*
G36*
X831596Y4306773D02*
G01*
X862888Y4306773D01*
X869238Y4307484D01*
X874674Y4309414D01*
X879602Y4312513D01*
X883666Y4316577D01*
X886815Y4321505D01*
X888746Y4326940D01*
X889406Y4333290D01*
X889406Y4364583D01*
X831596Y4364583D01*
G37*
G36*
X711047Y4306773D02*
G01*
X742391Y4306773D01*
X742391Y4364583D01*
X684580Y4364583D01*
X684580Y4333290D01*
X685292Y4326940D01*
X687171Y4321505D01*
X690270Y4316577D01*
X694334Y4312513D01*
X699262Y4309414D01*
X704697Y4307484D01*
G37*
G36*
X11618315Y4312361D02*
G01*
X11683542Y4312361D01*
X11677294Y4323791D01*
X11667439Y4337558D01*
X11656212Y4350207D01*
X11643512Y4361484D01*
X11629796Y4371238D01*
X11618315Y4377588D01*
G37*
G36*
X11415369Y4312361D02*
G01*
X11480596Y4312361D01*
X11480596Y4377588D01*
X11469217Y4371238D01*
X11455400Y4361484D01*
X11442801Y4350207D01*
X11431473Y4337558D01*
X11421719Y4323791D01*
G37*
G36*
X3028391Y4317136D02*
G01*
X3028391Y4364583D01*
X2980893Y4364583D01*
X2988564Y4351274D01*
X2997047Y4340504D01*
X3006852Y4331004D01*
X3017926Y4322927D01*
G37*
G36*
X3117596Y4317288D02*
G01*
X3122168Y4319422D01*
X3133699Y4326788D01*
X3144164Y4335627D01*
X3153308Y4345736D01*
X3161080Y4357014D01*
X3164890Y4364583D01*
X3117596Y4364583D01*
G37*
G36*
X3117596Y4453788D02*
G01*
X3164890Y4453788D01*
X3161080Y4461408D01*
X3153308Y4472686D01*
X3144164Y4482795D01*
X3133699Y4491634D01*
X3122168Y4499000D01*
X3117596Y4501134D01*
G37*
G36*
X2980893Y4453788D02*
G01*
X3028391Y4453788D01*
X3028391Y4501286D01*
X3017926Y4495495D01*
X3006852Y4487418D01*
X2997047Y4477867D01*
X2988564Y4467148D01*
G37*
G36*
X684580Y4453788D02*
G01*
X742391Y4453788D01*
X742391Y4511598D01*
X711047Y4511598D01*
X704697Y4510887D01*
X699262Y4509008D01*
X694334Y4505909D01*
X690270Y4501845D01*
X687171Y4496917D01*
X685292Y4491482D01*
X684580Y4485132D01*
G37*
G36*
X831596Y4453788D02*
G01*
X889406Y4453788D01*
X889406Y4485132D01*
X888746Y4491482D01*
X886815Y4496917D01*
X883666Y4501845D01*
X879602Y4505909D01*
X874674Y4509008D01*
X869238Y4510887D01*
X862888Y4511598D01*
X831596Y4511598D01*
G37*
G36*
X6470497Y4498187D02*
G01*
X6470497Y4545533D01*
X6423152Y4545533D01*
X6430822Y4532223D01*
X6439255Y4521504D01*
X6449110Y4512056D01*
X6460083Y4503928D01*
G37*
G36*
X6559397Y4498340D02*
G01*
X6564071Y4500473D01*
X6575501Y4507788D01*
X6585966Y4516628D01*
X6595059Y4526737D01*
X6602780Y4537964D01*
X6606692Y4545533D01*
X6559397Y4545533D01*
G37*
G36*
X6559397Y4634433D02*
G01*
X6606692Y4634433D01*
X6602780Y4642002D01*
X6595059Y4653280D01*
X6585966Y4663389D01*
X6575501Y4672177D01*
X6564071Y4679492D01*
X6559397Y4681677D01*
G37*
G36*
X6423152Y4634433D02*
G01*
X6470497Y4634433D01*
X6470497Y4681778D01*
X6460083Y4676038D01*
X6449110Y4667961D01*
X6439255Y4658461D01*
X6430822Y4647742D01*
G37*
G36*
X9855962Y4715052D02*
G01*
X9869576Y4716424D01*
X9882835Y4719574D01*
X9895535Y4724501D01*
X9907473Y4731054D01*
X9918446Y4739132D01*
X9928250Y4748631D01*
X9936734Y4759299D01*
X9943744Y4771034D01*
X9948976Y4783582D01*
X9952583Y4796739D01*
X9954412Y4810252D01*
X9954412Y4823917D01*
X9952583Y4837430D01*
X9948976Y4850587D01*
X9943744Y4863134D01*
X9936734Y4874869D01*
X9928250Y4885588D01*
X9918446Y4895037D01*
X9907473Y4903114D01*
X9895535Y4909667D01*
X9882835Y4914595D01*
X9869576Y4917744D01*
X9855962Y4919116D01*
X9842347Y4918659D01*
X9828885Y4916373D01*
X9815931Y4912360D01*
X9803485Y4906619D01*
X9792004Y4899253D01*
X9781590Y4890465D01*
X9772446Y4880356D01*
X9764725Y4869129D01*
X9758578Y4856937D01*
X9754158Y4844084D01*
X9751415Y4830673D01*
X9750450Y4817110D01*
X9751415Y4803495D01*
X9754158Y4790135D01*
X9758578Y4777232D01*
X9764725Y4765040D01*
X9772446Y4753813D01*
X9781590Y4743704D01*
X9792004Y4734915D01*
X9803485Y4727549D01*
X9815931Y4721809D01*
X9828885Y4717796D01*
X9842347Y4715510D01*
G37*
G36*
X10151008Y4725314D02*
G01*
X10161473Y4731054D01*
X10172446Y4739132D01*
X10182250Y4748631D01*
X10190734Y4759299D01*
X10197744Y4771034D01*
X10198354Y4772660D01*
X10151008Y4772660D01*
G37*
G36*
X10062108Y4725416D02*
G01*
X10062108Y4772660D01*
X10014966Y4772660D01*
X10018725Y4765040D01*
X10026446Y4753813D01*
X10035590Y4743704D01*
X10046004Y4734915D01*
X10057485Y4727549D01*
G37*
G36*
X7199985Y4757928D02*
G01*
X7213600Y4758791D01*
X7226960Y4761534D01*
X7239812Y4766005D01*
X7252004Y4772152D01*
X7263231Y4779873D01*
X7273340Y4789017D01*
X7282180Y4799431D01*
X7289546Y4810912D01*
X7295235Y4823307D01*
X7299299Y4836312D01*
X7301585Y4849774D01*
X7302042Y4863388D01*
X7300671Y4876952D01*
X7297470Y4890211D01*
X7292543Y4902962D01*
X7286040Y4914900D01*
X7277912Y4925923D01*
X7268464Y4935677D01*
X7257796Y4944160D01*
X7246010Y4951120D01*
X7233462Y4956403D01*
X7220305Y4960010D01*
X7206792Y4961839D01*
X7193178Y4961839D01*
X7179665Y4960010D01*
X7166508Y4956403D01*
X7153960Y4951120D01*
X7142175Y4944160D01*
X7131507Y4935677D01*
X7122058Y4925923D01*
X7113930Y4914900D01*
X7107377Y4902962D01*
X7102449Y4890211D01*
X7099300Y4876952D01*
X7097928Y4863388D01*
X7098385Y4849774D01*
X7100671Y4836312D01*
X7104735Y4823307D01*
X7110425Y4810912D01*
X7117791Y4799431D01*
X7126630Y4789017D01*
X7136688Y4779873D01*
X7147915Y4772152D01*
X7160158Y4766005D01*
X7173010Y4761534D01*
X7186371Y4758791D01*
G37*
G36*
X6949948Y4757928D02*
G01*
X6963562Y4758791D01*
X6976922Y4761534D01*
X6989876Y4766005D01*
X7001967Y4772152D01*
X7013244Y4779873D01*
X7023353Y4789017D01*
X7032142Y4799431D01*
X7039508Y4810912D01*
X7045299Y4823307D01*
X7049262Y4836312D01*
X7051548Y4849774D01*
X7052005Y4863388D01*
X7050633Y4876952D01*
X7047484Y4890211D01*
X7042607Y4902962D01*
X7036003Y4914900D01*
X7027976Y4925923D01*
X7018426Y4935677D01*
X7007758Y4944160D01*
X6996023Y4951120D01*
X6983425Y4956403D01*
X6970369Y4960010D01*
X6956755Y4961839D01*
X6943140Y4961839D01*
X6929628Y4960010D01*
X6916470Y4956403D01*
X6903923Y4951120D01*
X6892239Y4944160D01*
X6881469Y4935677D01*
X6872020Y4925923D01*
X6863892Y4914900D01*
X6857339Y4902962D01*
X6852462Y4890211D01*
X6849364Y4876952D01*
X6847992Y4863388D01*
X6848449Y4849774D01*
X6850634Y4836312D01*
X6854698Y4823307D01*
X6860489Y4810912D01*
X6867753Y4799431D01*
X6876592Y4789017D01*
X6886702Y4779873D01*
X6897928Y4772152D01*
X6910120Y4766005D01*
X6922973Y4761534D01*
X6936333Y4758791D01*
G37*
G36*
X8149996Y4767884D02*
G01*
X8163610Y4768799D01*
X8176971Y4771542D01*
X8189823Y4776012D01*
X8202015Y4782159D01*
X8213242Y4789881D01*
X8223351Y4799025D01*
X8232190Y4809439D01*
X8239556Y4820920D01*
X8245246Y4833315D01*
X8249310Y4846320D01*
X8251596Y4859782D01*
X8252053Y4873396D01*
X8250681Y4886960D01*
X8247481Y4900218D01*
X8242553Y4912969D01*
X8236051Y4924907D01*
X8227923Y4935880D01*
X8218474Y4945684D01*
X8207806Y4954168D01*
X8196021Y4961128D01*
X8183422Y4966411D01*
X8170316Y4970018D01*
X8156803Y4971846D01*
X8143189Y4971846D01*
X8129676Y4970018D01*
X8116519Y4966411D01*
X8103920Y4961128D01*
X8092186Y4954168D01*
X8081467Y4945684D01*
X8072069Y4935880D01*
X8063890Y4924907D01*
X8057337Y4912969D01*
X8052460Y4900218D01*
X8049310Y4886960D01*
X8047939Y4873396D01*
X8048396Y4859782D01*
X8050631Y4846320D01*
X8054746Y4833315D01*
X8060436Y4820920D01*
X8067751Y4809439D01*
X8076590Y4799025D01*
X8086699Y4789881D01*
X8097926Y4782159D01*
X8110169Y4776012D01*
X8122970Y4771542D01*
X8136381Y4768799D01*
G37*
G36*
X8400034Y4767884D02*
G01*
X8413546Y4768799D01*
X8426907Y4771542D01*
X8439810Y4776012D01*
X8452053Y4782159D01*
X8463280Y4789881D01*
X8473389Y4799025D01*
X8482126Y4809439D01*
X8489492Y4820920D01*
X8495284Y4833315D01*
X8499246Y4846320D01*
X8501532Y4859782D01*
X8501989Y4873396D01*
X8500618Y4886960D01*
X8497519Y4900218D01*
X8492540Y4912969D01*
X8485987Y4924907D01*
X8477910Y4935880D01*
X8468410Y4945684D01*
X8457742Y4954168D01*
X8446058Y4961128D01*
X8441740Y4962906D01*
X8438794Y4964785D01*
X8436762Y4967478D01*
X8433917Y4972710D01*
X8428583Y4979263D01*
X8279231Y5128564D01*
X8272678Y5133949D01*
X8265617Y5137759D01*
X8257946Y5140045D01*
X8249462Y5140909D01*
X6625539Y5140909D01*
X6617004Y5140045D01*
X6609334Y5137759D01*
X6602272Y5133949D01*
X6595719Y5128564D01*
X6556705Y5089550D01*
X6553454Y5087366D01*
X6549644Y5086553D01*
X6531965Y5090668D01*
X6518351Y5092039D01*
X6504787Y5091582D01*
X6491274Y5089296D01*
X6478270Y5085232D01*
X6465976Y5079492D01*
X6454394Y5072176D01*
X6443980Y5063388D01*
X6434836Y5053279D01*
X6427114Y5042001D01*
X6420967Y5029860D01*
X6416548Y5016957D01*
X6413804Y5003596D01*
X6412890Y4989982D01*
X6413804Y4976368D01*
X6416548Y4963007D01*
X6420967Y4950155D01*
X6427114Y4937963D01*
X6434836Y4926736D01*
X6443980Y4916627D01*
X6454394Y4907788D01*
X6465976Y4900472D01*
X6478270Y4894732D01*
X6491274Y4890668D01*
X6504787Y4888433D01*
X6518351Y4887976D01*
X6531965Y4889347D01*
X6545224Y4892497D01*
X6557924Y4897374D01*
X6569964Y4903927D01*
X6580886Y4912055D01*
X6590690Y4921504D01*
X6599123Y4932222D01*
X6606133Y4943957D01*
X6611467Y4956505D01*
X6615023Y4969662D01*
X6616801Y4983175D01*
X6616801Y4996789D01*
X6615023Y5010302D01*
X6611924Y5021783D01*
X6611569Y5025288D01*
X6612483Y5028742D01*
X6614515Y5031638D01*
X6638950Y5056124D01*
X6642303Y5058308D01*
X6646164Y5059070D01*
X8228787Y5059070D01*
X8232749Y5058308D01*
X8236051Y5056124D01*
X8331758Y4960366D01*
X8333943Y4957114D01*
X8334705Y4953254D01*
X8333994Y4949393D01*
X8331860Y4946091D01*
X8322005Y4935880D01*
X8313928Y4924907D01*
X8307374Y4912969D01*
X8302498Y4900218D01*
X8299297Y4886960D01*
X8297976Y4873396D01*
X8298434Y4859782D01*
X8300669Y4846320D01*
X8304682Y4833315D01*
X8310422Y4820920D01*
X8317788Y4809439D01*
X8326577Y4799025D01*
X8336737Y4789881D01*
X8347964Y4782159D01*
X8360105Y4776012D01*
X8373008Y4771542D01*
X8386419Y4768799D01*
G37*
G36*
X7405573Y4768342D02*
G01*
X7405573Y4815535D01*
X7358278Y4815535D01*
X7360412Y4810912D01*
X7367778Y4799431D01*
X7376566Y4789017D01*
X7386726Y4779873D01*
X7397953Y4772152D01*
G37*
G36*
X7494473Y4768342D02*
G01*
X7502042Y4772152D01*
X7513269Y4779873D01*
X7523378Y4789017D01*
X7532217Y4799431D01*
X7539481Y4810912D01*
X7541615Y4815535D01*
X7494473Y4815535D01*
G37*
G36*
X8605520Y4778349D02*
G01*
X8605520Y4825542D01*
X8558326Y4825542D01*
X8560460Y4820920D01*
X8567826Y4809439D01*
X8576564Y4799025D01*
X8586673Y4789881D01*
X8598001Y4782159D01*
G37*
G36*
X8694420Y4778349D02*
G01*
X8701989Y4782159D01*
X8713216Y4789881D01*
X8723325Y4799025D01*
X8732164Y4809439D01*
X8739530Y4820920D01*
X8741664Y4825542D01*
X8694420Y4825542D01*
G37*
G36*
X10014966Y4861560D02*
G01*
X10062108Y4861560D01*
X10062108Y4908753D01*
X10057485Y4906619D01*
X10046004Y4899253D01*
X10035590Y4890465D01*
X10026446Y4880356D01*
X10018725Y4869129D01*
G37*
G36*
X10151008Y4861560D02*
G01*
X10198354Y4861560D01*
X10197744Y4863134D01*
X10190734Y4874869D01*
X10182250Y4885588D01*
X10172446Y4895037D01*
X10161473Y4903114D01*
X10151008Y4908854D01*
G37*
G36*
X11499951Y4872482D02*
G01*
X11515344Y4873447D01*
X11530482Y4876190D01*
X11545163Y4880762D01*
X11559235Y4887112D01*
X11572392Y4895088D01*
X11584533Y4904587D01*
X11595354Y4915458D01*
X11604853Y4927549D01*
X11612880Y4940757D01*
X11619230Y4954778D01*
X11623751Y4969459D01*
X11626494Y4984597D01*
X11627510Y4999990D01*
X11626494Y5015382D01*
X11623751Y5030520D01*
X11619230Y5045202D01*
X11612880Y5059222D01*
X11604853Y5072430D01*
X11595354Y5084521D01*
X11584533Y5095392D01*
X11572392Y5104892D01*
X11559235Y5112867D01*
X11545163Y5119217D01*
X11530482Y5123789D01*
X11515344Y5126532D01*
X11499951Y5127498D01*
X11484559Y5126532D01*
X11469420Y5123789D01*
X11454739Y5119217D01*
X11440769Y5112867D01*
X11427510Y5104892D01*
X11415471Y5095392D01*
X11404600Y5084521D01*
X11395049Y5072430D01*
X11387124Y5059222D01*
X11380774Y5045202D01*
X11376152Y5030520D01*
X11373408Y5015382D01*
X11372494Y4999990D01*
X11373408Y4984597D01*
X11376152Y4969459D01*
X11380774Y4954778D01*
X11387124Y4940757D01*
X11395049Y4927549D01*
X11404600Y4915458D01*
X11415471Y4904587D01*
X11427510Y4895088D01*
X11440769Y4887112D01*
X11454739Y4880762D01*
X11469420Y4876190D01*
X11484559Y4873447D01*
G37*
G36*
X499973Y4872482D02*
G01*
X515366Y4873447D01*
X530504Y4876190D01*
X545185Y4880762D01*
X559206Y4887112D01*
X572414Y4895088D01*
X584504Y4904587D01*
X595376Y4915458D01*
X604926Y4927549D01*
X612851Y4940757D01*
X619201Y4954778D01*
X623773Y4969459D01*
X626516Y4984597D01*
X627481Y4999990D01*
X626516Y5015382D01*
X623773Y5030520D01*
X619201Y5045202D01*
X612851Y5059222D01*
X604926Y5072430D01*
X595376Y5084521D01*
X584504Y5095392D01*
X572414Y5104892D01*
X559206Y5112867D01*
X545185Y5119217D01*
X530504Y5123789D01*
X515366Y5126532D01*
X499973Y5127498D01*
X484581Y5126532D01*
X469442Y5123789D01*
X454761Y5119217D01*
X440791Y5112867D01*
X427532Y5104892D01*
X415442Y5095392D01*
X404571Y5084521D01*
X395071Y5072430D01*
X387096Y5059222D01*
X380746Y5045202D01*
X376174Y5030520D01*
X373430Y5015382D01*
X372465Y4999990D01*
X373430Y4984597D01*
X376174Y4969459D01*
X380746Y4954778D01*
X387096Y4940757D01*
X395071Y4927549D01*
X404571Y4915458D01*
X415442Y4904587D01*
X427532Y4895088D01*
X440791Y4887112D01*
X454761Y4880762D01*
X469442Y4876190D01*
X484581Y4873447D01*
G37*
G36*
X5488432Y4887976D02*
G01*
X5501944Y4889347D01*
X5515203Y4892497D01*
X5528005Y4897374D01*
X5539892Y4903927D01*
X5550916Y4912055D01*
X5560669Y4921504D01*
X5569153Y4932222D01*
X5576062Y4943957D01*
X5581396Y4956505D01*
X5585053Y4969662D01*
X5586831Y4983175D01*
X5586831Y4996789D01*
X5585053Y5010302D01*
X5581396Y5023459D01*
X5576062Y5036007D01*
X5569153Y5047742D01*
X5560669Y5058460D01*
X5550916Y5067960D01*
X5539892Y5076037D01*
X5528005Y5082590D01*
X5515203Y5087467D01*
X5501944Y5090668D01*
X5488432Y5092039D01*
X5474817Y5091582D01*
X5461304Y5089296D01*
X5448300Y5085232D01*
X5435904Y5079492D01*
X5424474Y5072176D01*
X5414060Y5063388D01*
X5404866Y5053279D01*
X5397144Y5042001D01*
X5390997Y5029860D01*
X5386527Y5016957D01*
X5383784Y5003596D01*
X5382869Y4989982D01*
X5383784Y4976368D01*
X5386527Y4963007D01*
X5390997Y4950155D01*
X5397144Y4937963D01*
X5404866Y4926736D01*
X5414060Y4916627D01*
X5424474Y4907788D01*
X5435904Y4900472D01*
X5448300Y4894732D01*
X5461304Y4890668D01*
X5474817Y4888433D01*
G37*
G36*
X7494473Y4904435D02*
G01*
X7541768Y4904435D01*
X7536078Y4914900D01*
X7527899Y4925923D01*
X7518501Y4935677D01*
X7507731Y4944160D01*
X7496048Y4951120D01*
X7494473Y4951780D01*
G37*
G36*
X7358176Y4904435D02*
G01*
X7405573Y4904435D01*
X7405573Y4951780D01*
X7403896Y4951120D01*
X7392162Y4944160D01*
X7381494Y4935677D01*
X7371994Y4925923D01*
X7363917Y4914900D01*
G37*
G36*
X8558174Y4914442D02*
G01*
X8605520Y4914442D01*
X8605520Y4961788D01*
X8603894Y4961128D01*
X8592210Y4954168D01*
X8581542Y4945684D01*
X8572042Y4935880D01*
X8563965Y4924907D01*
G37*
G36*
X8694420Y4914442D02*
G01*
X8741765Y4914442D01*
X8736025Y4924907D01*
X8727948Y4935880D01*
X8718448Y4945684D01*
X8707780Y4954168D01*
X8695994Y4961128D01*
X8694420Y4961788D01*
G37*

%LPD*%
D10*
X3072996Y3647208D02*
G01*
X3267209Y3647208D01*
X3659992Y4039991D01*
X4119991Y4039991D01*
X4119991Y4029991D01*
X4299991Y3849992D01*
X4299991Y3591991D01*
X786996Y1869208D02*
G01*
X489211Y1869208D01*
X359999Y1739996D01*
X359999Y1039997D01*
X849998Y549998D01*
X849998Y549998D01*
X850112Y550011D02*
G01*
X1089888Y309981D01*
X5979896Y309981D01*
X6860006Y1190091D01*
X7199858Y1192123D01*
X6209987Y937996D02*
G01*
X5659988Y937996D01*
X3072996Y2885208D02*
G01*
X3394778Y2885208D01*
X3559992Y2719994D01*
X3559992Y1199997D01*
X3759992Y999997D01*
X5299989Y999997D01*
X5739988Y1439997D01*
X7193986Y1439997D01*
X7199985Y1445996D01*
X3072996Y4155208D02*
G01*
X3505210Y4155208D01*
X3939992Y4589990D01*
X5484977Y4589990D01*
X3072996Y3901208D02*
G01*
X3371209Y3901208D01*
X3739992Y4269991D01*
X5004978Y4269991D01*
X5484977Y3789992D01*
X4349978Y1573123D02*
G01*
X4067022Y1573123D01*
X3979900Y1659991D01*
X3979900Y2019909D01*
X4180052Y2220061D01*
X4979898Y2220061D01*
X6199860Y3440023D01*
X7070064Y3440023D01*
X7210018Y3579977D01*
X9342856Y3582517D01*
X3537991Y3591991D02*
G01*
X3537991Y3441994D01*
X3809992Y3169993D01*
X5369989Y3169993D01*
D11*
X8605982Y596003D02*
G01*
X8605982Y725998D01*
X8759982Y879998D01*
X10489979Y879998D01*
X10699978Y1089997D01*
X10699978Y4477692D01*
X10360581Y4817089D01*
D10*
X9598581Y4817089D02*
G01*
X9598581Y4481390D01*
X9669980Y4409991D01*
X9669980Y3499993D01*
X9498505Y3328517D01*
X9342856Y3328517D01*
X9349981Y1689983D02*
G01*
X7559997Y1689983D01*
X7399985Y1849996D01*
X7399985Y3089782D01*
X7279868Y3209899D01*
X9349968Y1939899D02*
G01*
X8359876Y1939899D01*
X7949920Y2350109D01*
X7560030Y2350109D01*
X7450048Y2460091D01*
X7450048Y3229965D01*
X8399970Y4869990D02*
G01*
X8399970Y4950002D01*
X8249983Y5099989D01*
X6624998Y5099989D01*
X6514998Y4989990D01*
X4349978Y1826996D02*
G01*
X4946990Y1826996D01*
X6339987Y3219993D01*
X7079985Y3219993D01*
X7289985Y3429993D01*
X9079981Y3429993D01*
X9181457Y3328517D01*
X9342856Y3328517D01*
D12*
G01*
X10360583Y4817084D03*
G01*
X10106583Y4817084D03*
G01*
X9852583Y4817084D03*
D13*
G01*
X9598583Y4817084D03*
D12*
G01*
X9342856Y4090517D03*
G01*
X9342856Y3836517D03*
G01*
X9342856Y3582517D03*
D13*
G01*
X9342856Y3328517D03*
D14*
G01*
X10050475Y2700096D03*
G01*
X11549481Y4243476D03*
G01*
X11549481Y1156487D03*
D12*
G01*
X10185476Y3842994D03*
G01*
X10439476Y3715994D03*
G01*
X10185476Y3588994D03*
G01*
X10439476Y3461994D03*
G01*
X10185476Y3334994D03*
G01*
X10439476Y3207994D03*
G01*
X10185476Y3080994D03*
G01*
X10439476Y2953994D03*
G01*
X10185476Y2445994D03*
G01*
X10439476Y2318994D03*
G01*
X10185476Y2191994D03*
G01*
X10439476Y2064994D03*
G01*
X10185476Y1937994D03*
G01*
X10439476Y1810994D03*
G01*
X10185476Y1683994D03*
G01*
X10439476Y1556994D03*
G01*
X8369985Y3120999D03*
G01*
X8369985Y2358999D03*
G01*
X9349994Y1440002D03*
G01*
X9349994Y2440000D03*
G01*
X9349994Y1689988D03*
G01*
X9349994Y1940001D03*
G01*
X9349994Y2190013D03*
D13*
G01*
X7199985Y937996D03*
D12*
G01*
X7199985Y1191996D03*
G01*
X7199985Y1445996D03*
G01*
X7199985Y1699996D03*
G01*
X7199985Y1953996D03*
G01*
X7199985Y2207996D03*
G01*
X7199985Y2461996D03*
D13*
G01*
X4349978Y1572996D03*
G01*
X4349978Y1826996D03*
D12*
G01*
X6514998Y4989982D03*
G01*
X5484977Y4989982D03*
G01*
X5484977Y4589983D03*
G01*
X6514998Y4589983D03*
G01*
X6514998Y4189984D03*
G01*
X5484977Y4189984D03*
G01*
X5484977Y3789984D03*
G01*
X6514998Y3789984D03*
G01*
X6949998Y4859985D03*
G01*
X7199985Y4859985D03*
G01*
X7449997Y4859985D03*
G01*
X8149996Y4869992D03*
G01*
X8399983Y4869992D03*
G01*
X8649995Y4869992D03*
D15*
G01*
X7919973Y3088995D03*
G01*
X7919973Y2834995D03*
D16*
G01*
X7919973Y1310995D03*
G01*
X7919973Y2072995D03*
D17*
G01*
X786993Y4409211D03*
D18*
G01*
X786993Y4155211D03*
G01*
X786993Y3901211D03*
G01*
X786993Y3647211D03*
G01*
X786993Y3393211D03*
G01*
X786993Y3139211D03*
G01*
X786993Y2885211D03*
G01*
X786993Y2631211D03*
G01*
X786993Y2377211D03*
G01*
X786993Y2123211D03*
G01*
X786993Y1869211D03*
G01*
X786993Y1615211D03*
G01*
X786993Y1361211D03*
G01*
X786993Y1107211D03*
G01*
X786993Y853211D03*
G01*
X3072993Y853211D03*
G01*
X3072993Y1107211D03*
G01*
X3072993Y1361211D03*
G01*
X3072993Y1615211D03*
G01*
X3072993Y1869211D03*
G01*
X3072993Y2123211D03*
G01*
X3072993Y2377211D03*
G01*
X3072993Y2631211D03*
G01*
X3072993Y2885211D03*
G01*
X3072993Y3139211D03*
G01*
X3072993Y3393211D03*
G01*
X3072993Y3647211D03*
G01*
X3072993Y3901211D03*
G01*
X3072993Y4155211D03*
G01*
X3072993Y4409211D03*
D19*
G01*
X3537991Y3591991D03*
G01*
X3791991Y3591991D03*
G01*
X4045991Y3591991D03*
G01*
X4299991Y3591991D03*
G01*
X4553991Y3591991D03*
G01*
X4807991Y3591991D03*
D20*
G01*
X8859977Y596010D03*
D21*
G01*
X9113977Y596010D03*
D20*
G01*
X8605977Y596010D03*
D22*
G01*
X6209995Y937996D03*
G01*
X5659983Y937996D03*
G01*
X7450048Y3229965D03*
G01*
X7279868Y3209899D03*
G01*
X5369991Y3169996D03*
M02*
